<svg id="Layer_1" data-name="Layer 1" xmlns="http://www.w3.org/2000/svg" xmlns:xlink="http://www.w3.org/1999/xlink" viewBox="0 0 322.431 166.437">
  <defs>
    <style>
      .cls-1, .cls-20, .cls-24, .cls-25, .cls-26, .cls-5 {
        fill: none;
      }

      .cls-10, .cls-11, .cls-12, .cls-13, .cls-14, .cls-15, .cls-16, .cls-17, .cls-2, .cls-20, .cls-24, .cls-25, .cls-26, .cls-5, .cls-7, .cls-9 {
        stroke: #1a1818;
      }

      .cls-2, .cls-3, .cls-7, .cls-8 {
        stroke-linecap: round;
      }

      .cls-10, .cls-11, .cls-12, .cls-13, .cls-14, .cls-15, .cls-16, .cls-17, .cls-2, .cls-3, .cls-7, .cls-8, .cls-9 {
        stroke-miterlimit: 282;
      }

      .cls-2, .cls-7 {
        stroke-width: 0.117px;
      }

      .cls-2 {
        fill: url(#radial-gradient);
      }

      .cls-3, .cls-8 {
        stroke: #2e8f36;
        stroke-width: 0.239px;
      }

      .cls-3 {
        fill: url(#radial-gradient-2);
      }

      .cls-4 {
        fill: #1a1818;
      }

      .cls-24, .cls-25, .cls-26, .cls-5 {
        stroke-miterlimit: 10;
      }

      .cls-24, .cls-5 {
        stroke-width: 1.151px;
      }

      .cls-6 {
        fill: #ec411b;
      }

      .cls-7 {
        fill: url(#radial-gradient-3);
      }

      .cls-8 {
        fill: url(#radial-gradient-4);
      }

      .cls-10, .cls-11, .cls-12, .cls-13, .cls-14, .cls-15, .cls-16, .cls-17, .cls-9 {
        stroke-width: 0.98px;
      }

      .cls-9 {
        fill: url(#radial-gradient-5);
      }

      .cls-10 {
        fill: url(#radial-gradient-6);
      }

      .cls-11 {
        fill: url(#radial-gradient-7);
      }

      .cls-12 {
        fill: url(#radial-gradient-8);
      }

      .cls-13 {
        fill: url(#radial-gradient-9);
      }

      .cls-14 {
        fill: #e50019;
      }

      .cls-15 {
        fill: url(#radial-gradient-10);
      }

      .cls-16 {
        fill: url(#radial-gradient-11);
      }

      .cls-17 {
        fill: url(#radial-gradient-12);
      }

      .cls-18 {
        clip-path: url(#clip-path);
      }

      .cls-19 {
        fill: url(#radial-gradient-13);
      }

      .cls-20 {
        stroke-width: 0.168px;
      }

      .cls-21 {
        clip-path: url(#clip-path-2);
      }

      .cls-22 {
        fill: url(#radial-gradient-14);
      }

      .cls-23 {
        fill: url(#radial-gradient-15);
      }

      .cls-24 {
        stroke-dasharray: 1.863 1.863;
      }

      .cls-26 {
        stroke-width: 1.097px;
      }
    </style>
    <radialGradient id="radial-gradient" cx="545.891" cy="667.485" r="27.845" gradientTransform="matrix(-0.761, -0.648, 0.386, -0.454, 401.622, 775.518)" gradientUnits="userSpaceOnUse">
      <stop offset="0" stop-color="#e50019" stop-opacity="0.1"/>
      <stop offset="0.112" stop-color="#e5001b" stop-opacity="0.124"/>
      <stop offset="0.254" stop-color="#e50121" stop-opacity="0.193"/>
      <stop offset="0.412" stop-color="#e5032b" stop-opacity="0.307"/>
      <stop offset="0.581" stop-color="#e40539" stop-opacity="0.467"/>
      <stop offset="0.76" stop-color="#e4084b" stop-opacity="0.671"/>
      <stop offset="0.943" stop-color="#e30c61" stop-opacity="0.917"/>
      <stop offset="1" stop-color="#e30d68"/>
    </radialGradient>
    <radialGradient id="radial-gradient-2" cx="545.412" cy="484.923" r="6.054" gradientTransform="translate(344.916 842.278) rotate(-139.579)" gradientUnits="userSpaceOnUse">
      <stop offset="0" stop-color="#45a735" stop-opacity="0.2"/>
      <stop offset="0.144" stop-color="#45a737" stop-opacity="0.232"/>
      <stop offset="0.325" stop-color="#43a73b" stop-opacity="0.325"/>
      <stop offset="0.527" stop-color="#41a843" stop-opacity="0.477"/>
      <stop offset="0.744" stop-color="#3ea84e" stop-opacity="0.69"/>
      <stop offset="0.97" stop-color="#3aa95c" stop-opacity="0.96"/>
      <stop offset="1" stop-color="#39a95e"/>
    </radialGradient>
    <radialGradient id="radial-gradient-3" cx="669.449" cy="509.964" r="27.845" xlink:href="#radial-gradient"/>
    <radialGradient id="radial-gradient-4" cx="668.964" cy="391.094" r="6.054" xlink:href="#radial-gradient-2"/>
    <radialGradient id="radial-gradient-5" cx="35.259" cy="77.771" r="6.955" gradientUnits="userSpaceOnUse">
      <stop offset="0.185" stop-color="#fff" stop-opacity="0.7"/>
      <stop offset="1" stop-color="#e50019"/>
    </radialGradient>
    <radialGradient id="radial-gradient-6" cx="41.696" cy="66.599" r="6.955" xlink:href="#radial-gradient-5"/>
    <radialGradient id="radial-gradient-7" cx="1847.35" cy="-580.317" r="6.461" gradientTransform="matrix(0.524, -0.797, 0.852, 0.49, -419.808, 1822.96)" xlink:href="#radial-gradient-5"/>
    <radialGradient id="radial-gradient-8" cx="41.839" cy="49.82" r="6.955" gradientUnits="userSpaceOnUse">
      <stop offset="0.185" stop-color="#e0e1e3" stop-opacity="0.7"/>
      <stop offset="1" stop-color="#5a5b5e"/>
    </radialGradient>
    <radialGradient id="radial-gradient-9" cx="54.717" cy="42.384" r="6.955" xlink:href="#radial-gradient-8"/>
    <radialGradient id="radial-gradient-10" cx="134.271" cy="75.507" r="6.955" xlink:href="#radial-gradient-5"/>
    <radialGradient id="radial-gradient-11" cx="140.709" cy="64.335" r="6.955" xlink:href="#radial-gradient-5"/>
    <radialGradient id="radial-gradient-12" cx="1901.269" cy="-497.238" r="6.461" gradientTransform="matrix(0.524, -0.797, 0.852, 0.49, -419.808, 1822.96)" xlink:href="#radial-gradient-5"/>
    <clipPath id="clip-path" transform="translate(0 0)">
      <path class="cls-1" d="M198.871,97.894a11.4,11.4,0,0,1-4.448,6.678c-1.2.814-5.506.891-3.592-1.346.284-.329,1.594-.879,1.173-1.377-.376-.445-1.317.347-1.575.618-.358.38-.509,1.206-.933,1.468-.745.458-2.649.291-2.623-.718.068-2.632,6.718-2.876,5.523-5.35-.616-1.278-2.87.025-3.667.519a9.488,9.488,0,0,0-3.553,3.58c-.334.643-.672,1.725-1.1,2.676a10.016,10.016,0,0,0-2.132,1.078A19.467,19.467,0,0,1,180,103.928a10.721,10.721,0,0,1-1.369-2.417,13.886,13.886,0,0,0-2.8-3.916c-.738.843.716,2.518,1.057,3.247a25.568,25.568,0,0,0,1.74,3.5,6.6,6.6,0,0,0,1.236,1.542c.415.367,1.24.7,1.217,1.308-.686.155-1.4-.485-1.981-.759.041.654.893,1.187.941,1.728.088.987-.775.39-1.6-.2-.7-.5-1.373-1.009-1.42-.55-.114,1.212,2.26,1.52,1.721,2.73-.6,1.343-3.684.312-4.661.151-.874-.142-6.969-2.829-7.1-1.943-.258,1.769,4.8,2.538,5.833,2.912a18.605,18.605,0,0,1,4.643,2.062c-.024.293-.039.589-.035.889a7.045,7.045,0,0,1,.052,2.41,5.83,5.83,0,0,1-1.789,1.869,18.448,18.448,0,0,1-4.141,2.65c-.207.088-3.673,1.477-3.151,1.917.88.745,3.068-.47,3.887-.967.417-.249,6.32-4.547,6.349-3.419.009.337-.494.41-.69.523a22.143,22.143,0,0,0-2.524,1.4c-.059.043-.926.967-.764.952,1.129-.1,1.863-1.057,2.8-1.554.653-.348,1.631-.386,1.337.684-.3,1.1-2.112,2.191-2.782,3.154-.718,1.033-1.478,1.9-2.274,2.877-.373.458-1.4,2.427.077,2.153.86-.158,1.926-2.158,2.346-2.844,1.347-2.185,3.328-4.917,6.1-3.214.638.395.267,1.166.114,1.7-.181.64-.26,1.314-.483,1.953a20.159,20.159,0,0,1-1.723,3.113c-.565.966-1.295,1.833-1.837,2.816-.524.961-.72,2.275.675,1.64a5.6,5.6,0,0,0,2.273-2.112c.915-1.524,1.114-3.309,2.136-4.8.435-.634,1.625-2.728,2.431-2.094a5.615,5.615,0,0,1,.7,2.62c.188-.537.247-1.116.45-1.647.3-.8.31-.79,1.026-.682,1.538.238,2.118,4.636,2.118,5.942,0,.83.074,5.324,1.509,4.963.424-2.064-.267-3.882-.373-5.9-.085-1.689-.76-3.559-.494-5.229.1-.6.771-1.8,1.487-1.869.83-.081,1.893,1.322,2.52,1.75-.007-.625-1.332-2.027-.413-2.344.734-.255,2.527,1.4,2.974,1.879.612.648,1.133,1.282,1.8,1.879.882.789,1.767,1.466,2.918.879.2-.924-.76-1.205-1.424-1.472a3.369,3.369,0,0,1-2.1-1.6A21.9,21.9,0,0,1,197,121.618a12.337,12.337,0,0,1-.546-2.658,2.086,2.086,0,0,1,1.834.256,2.975,2.975,0,0,0,1.332.386c.428-1.529-1.863-1.02-2.236-2a1.678,1.678,0,0,1,.317-1.286c.5-.38,1.749.049,2.269.162a27.219,27.219,0,0,0,3.59.67c.576-1.257-2.951-1.265-3.586-1.382-1.155-.211-2.4-.67-1.3-1.984.834-1,2.512-1.336,3.7-1.746,1.313-.458,4.221-.909,5.08-2.069-1.435-.6-2.977.112-4.549.82-1.4.631-2.819,1.259-4.21.974a2.032,2.032,0,0,1-1.623-1.051,10.409,10.409,0,0,1-1.1-2.18,10.055,10.055,0,0,1,.727-2.911,15.681,15.681,0,0,1,2.221-3.129,8.826,8.826,0,0,0,1.749-3.953c.155-.821.557-2.458-.14-3.134a.826.826,0,0,0-.542-.286c-.789,0-.97,2.191-1.107,2.774"/>
    </clipPath>
    <radialGradient id="radial-gradient-13" cx="430.571" cy="1192.427" r="0.826" gradientTransform="matrix(0, 24.666, 24.666, 0, -29224.527, -10504.841)" gradientUnits="userSpaceOnUse">
      <stop offset="0" stop-color="#fff"/>
      <stop offset="0.179" stop-color="#e4f3f9"/>
      <stop offset="0.565" stop-color="#9fd5ea"/>
      <stop offset="1" stop-color="#4ab0d7"/>
    </radialGradient>
    <clipPath id="clip-path-2" transform="translate(0 0)">
      <path class="cls-1" d="M188.7,113.933a7.91,7.91,0,0,1-1.692,1.007c-1.19.485-2.586.272-2.328,1.935a5.385,5.385,0,0,0,2.081,3.448,4.552,4.552,0,0,0,6.335-1.158,5.026,5.026,0,0,0,.188-5.014,2.152,2.152,0,0,0-1.955-1.28,4.793,4.793,0,0,0-2.629,1.063"/>
    </clipPath>
    <radialGradient id="radial-gradient-14" cx="391.325" cy="1402.847" r="0.827" gradientTransform="matrix(5.289, 0, 0, -5.289, -1880.969, 7536.103)" gradientUnits="userSpaceOnUse">
      <stop offset="0" stop-color="#fff"/>
      <stop offset="0.121" stop-color="#fafdfe"/>
      <stop offset="0.273" stop-color="#eaf6fa"/>
      <stop offset="0.443" stop-color="#d0eaf5"/>
      <stop offset="0.625" stop-color="#acdbed"/>
      <stop offset="0.814" stop-color="#7ec7e3"/>
      <stop offset="1" stop-color="#4ab0d7"/>
    </radialGradient>
    <radialGradient id="radial-gradient-15" cx="-741.976" cy="-773.975" r="42.964" gradientTransform="matrix(0.549, 0.368, -0.355, 0.569, 319.861, 828.516)" gradientUnits="userSpaceOnUse">
      <stop offset="0" stop-color="#f77e0b" stop-opacity="0.3"/>
      <stop offset="0.8" stop-color="#ec411b" stop-opacity="0.15"/>
      <stop offset="1" stop-color="#e82727" stop-opacity="0.03"/>
    </radialGradient>
  </defs>
  <title>44313f60-2332-4dfd-ab80-2a200e05c4d6</title>
  <g>
    <g>
      <path class="cls-2" d="M229.863,136.152c.919.779,3.588-.891,5.969-3.723a.4.4,0,0,0,.036-.041c.91.549,1.839.634,2.253.149l.015-.014.061.057a.449.449,0,0,0-.076.073c-.492.579-.061,1.757.96,2.659-.917,3.631-.908,6.952.057,7.533,1,.6,2.657-1.991,3.694-5.788a22.828,22.828,0,0,0,.75-4.293,41.649,41.649,0,0,1,6.172-9.417,42.738,42.738,0,0,1,7.55-7.057,22.739,22.739,0,0,0,4.165-1.44c3.584-1.625,5.882-3.667,5.126-4.566-.685-.817-3.662-.4-6.894.908a5.542,5.542,0,0,0-.628-.628,5.029,5.029,0,0,0-1.381-.847,4.651,4.651,0,0,0-1.263-1.636c-.033-.026-.061-.047-.093-.074,2.046-2.582,3.018-5.1,2.178-5.814s-3.2.613-5.462,3.02a2.374,2.374,0,0,0-2.229-.2l-.083-.07c.409-.77-.151-2.118-1.346-3.134a4.3,4.3,0,0,0-.362-.282c.467-3.323.213-6.152-.666-6.646-1.015-.57-2.476,2.166-3.263,6.107a23.352,23.352,0,0,0-.484,5,44.229,44.229,0,0,1-5.2,7.479,39.031,39.031,0,0,1-9.849,8.53l-.194.227a26.657,26.657,0,0,0-2.837.881c-3.768,1.4-6.236,3.284-5.513,4.2.69.873,4.076.535,7.679-.738.028.026.062.055.095.085,1.069.91,2.336,1.166,2.842.575a.885.885,0,0,0,.1-.144l.024.021c-.346.567.019,1.566.855,2.387a1.393,1.393,0,0,0-.108.128c-2.383,2.833-3.57,5.759-2.655,6.537Z" transform="translate(0 0)"/>
      <path class="cls-3" d="M239.868,115.842c2.326-2.729,6.111-3.323,8.462-1.322s2.362,5.83.036,8.56-6.112,3.319-8.454,1.324-2.367-5.835-.043-8.563Z" transform="translate(0 0)"/>
    </g>
    <g>
      <path class="cls-4" d="M217.328,39.83l-1.284,2.555H214.99l4.186-8.083h1.175l1.116,8.083h-1.02l-.324-2.555Zm2.71-.792-.312-2.339c-.048-.419-.108-1.007-.144-1.487h-.024c-.216.479-.42.983-.66,1.475l-1.211,2.351Z" transform="translate(0 0)"/>
      <path class="cls-4" d="M222.549,42.384l.779-4.114c.132-.647.2-1.211.276-1.691h.888l-.144,1.139h.024a2.538,2.538,0,0,1,2.147-1.271,1.429,1.429,0,0,1,1.475,1.619,5.59,5.59,0,0,1-.108.935l-.647,3.382h-1l.636-3.346a3.83,3.83,0,0,0,.084-.744c0-.587-.228-1.02-.912-1.02a2.556,2.556,0,0,0-1.979,2.291l-.528,2.818Z" transform="translate(0 0)"/>
      <path class="cls-4" d="M231.559,35.021l-.3,1.559h1.391l-.156.779H231.1l-.54,2.818a5.089,5.089,0,0,0-.108.936.489.489,0,0,0,.552.552,2.754,2.754,0,0,0,.468-.036l-.048.779a2.324,2.324,0,0,1-.768.108,1.079,1.079,0,0,1-1.224-1.127,5.4,5.4,0,0,1,.12-1.091l.576-2.938h-.84l.156-.779h.828l.251-1.308Z" transform="translate(0 0)"/>
      <path class="cls-4" d="M232.713,42.384l1.115-5.8h1l-1.116,5.8Zm1.3-7.424a.661.661,0,0,1,.659-.672.577.577,0,0,1,.588.624.656.656,0,0,1-.672.671A.574.574,0,0,1,234.008,34.961Z" transform="translate(0 0)"/>
      <path class="cls-4" d="M238.567,38.751l-.144.779h-2.878l.156-.779Z" transform="translate(0 0)"/>
      <path class="cls-4" d="M245,42.121a5.321,5.321,0,0,1-2.1.384,3.063,3.063,0,0,1-3.274-3.346,5.032,5.032,0,0,1,1.727-3.9,4.577,4.577,0,0,1,3.046-1.091,3.249,3.249,0,0,1,1.751.4l-.324.8a3.322,3.322,0,0,0-1.595-.336,3.412,3.412,0,0,0-2.315.912,4.247,4.247,0,0,0-1.235,3.07c0,1.451.66,2.639,2.458,2.639a4.067,4.067,0,0,0,1.727-.348Z" transform="translate(0 0)"/>
      <path class="cls-4" d="M249.786,42.384a14.909,14.909,0,0,1,.132-1.5h-.024a2.54,2.54,0,0,1-2.254,1.631,1.72,1.72,0,0,1-1.667-1.919,4.054,4.054,0,0,1,4.018-4.149,5.417,5.417,0,0,1,1.559.228l-.588,3.022a13.269,13.269,0,0,0-.251,2.687Zm.648-5.061a2.683,2.683,0,0,0-.7-.084A3.1,3.1,0,0,0,247,40.418c0,.647.228,1.283,1,1.283.827,0,1.811-1.08,2.1-2.626Z" transform="translate(0 0)"/>
      <path class="cls-4" d="M252.2,42.384l.779-4.114c.132-.647.2-1.211.276-1.691h.888L254,37.719h.024a2.538,2.538,0,0,1,2.147-1.271,1.429,1.429,0,0,1,1.475,1.619,5.59,5.59,0,0,1-.108.935l-.647,3.382h-1l.636-3.346a3.83,3.83,0,0,0,.084-.744c0-.587-.228-1.02-.912-1.02a2.556,2.556,0,0,0-1.979,2.291l-.528,2.818Z" transform="translate(0 0)"/>
      <path class="cls-4" d="M262.6,42.156a4.006,4.006,0,0,1-1.679.348,2.085,2.085,0,0,1-2.23-2.243,3.675,3.675,0,0,1,3.55-3.8,2.958,2.958,0,0,1,1.211.252l-.288.792a2.253,2.253,0,0,0-.983-.216,2.7,2.7,0,0,0-2.458,2.854,1.367,1.367,0,0,0,1.439,1.547,3.054,3.054,0,0,0,1.343-.324Z" transform="translate(0 0)"/>
      <path class="cls-4" d="M267.762,42.048a4,4,0,0,1-1.919.456,2.09,2.09,0,0,1-2.207-2.327c0-1.751,1.295-3.729,3.166-3.729a1.508,1.508,0,0,1,1.7,1.487c0,1.523-1.715,1.931-3.862,1.9a2.411,2.411,0,0,0,.12,1.1,1.321,1.321,0,0,0,1.3.779,3.238,3.238,0,0,0,1.559-.408Zm-1.1-4.821c-.947,0-1.655.923-1.9,1.835,1.56.012,2.783-.192,2.783-1.091C267.546,37.491,267.186,37.227,266.658,37.227Z" transform="translate(0 0)"/>
      <path class="cls-4" d="M269.012,42.384l.708-3.742c.144-.755.24-1.523.3-2.062h.875c-.048.408-.1.815-.156,1.259h.036a2.1,2.1,0,0,1,1.775-1.391,1.941,1.941,0,0,1,.276.024l-.192.983a1.4,1.4,0,0,0-.264-.024c-.863,0-1.631,1.043-1.883,2.4l-.48,2.555Z" transform="translate(0 0)"/>
      <path class="cls-4" d="M201.932,48.7,200.4,56.784h-1l1.535-8.083Z" transform="translate(0 0)"/>
      <path class="cls-4" d="M202.173,56.784l.779-4.114c.12-.647.2-1.211.264-1.691h.875l-.156,1.091h.036a2.478,2.478,0,0,1,2.039-1.223,1.263,1.263,0,0,1,1.355,1.295,2.489,2.489,0,0,1,2.135-1.295,1.378,1.378,0,0,1,1.4,1.523,5.9,5.9,0,0,1-.1.983l-.648,3.43h-.971l.624-3.346a3.844,3.844,0,0,0,.084-.755c0-.612-.228-1.008-.875-1.008-.72,0-1.571.84-1.811,2.135l-.563,2.974h-.959l.647-3.406a3.735,3.735,0,0,0,.072-.708c0-.492-.132-1-.863-1s-1.631.959-1.859,2.195l-.54,2.915Z" transform="translate(0 0)"/>
      <path class="cls-4" d="M211.869,56.784l.779-4.114c.12-.647.2-1.211.264-1.691h.875l-.156,1.091h.036a2.478,2.478,0,0,1,2.039-1.223,1.263,1.263,0,0,1,1.355,1.295,2.489,2.489,0,0,1,2.135-1.295,1.378,1.378,0,0,1,1.4,1.523,5.9,5.9,0,0,1-.1.983l-.648,3.43h-.971l.624-3.346a3.844,3.844,0,0,0,.084-.755c0-.612-.228-1.008-.875-1.008-.72,0-1.571.84-1.811,2.135l-.563,2.974h-.959l.647-3.406a3.735,3.735,0,0,0,.072-.708c0-.492-.132-1-.863-1s-1.631.959-1.859,2.195l-.54,2.915Z" transform="translate(0 0)"/>
      <path class="cls-4" d="M227.166,50.98l-.779,4.114c-.12.647-.2,1.211-.264,1.691h-.9l.156-1.091h-.024a2.583,2.583,0,0,1-2.051,1.223c-.744,0-1.523-.36-1.523-1.679a5.287,5.287,0,0,1,.108-.971l.624-3.286h1l-.612,3.238a3.942,3.942,0,0,0-.108.852c0,.6.252,1.007.936,1.007a2.393,2.393,0,0,0,1.883-2.123l.564-2.974Z" transform="translate(0 0)"/>
      <path class="cls-4" d="M227.817,56.784l.779-4.114c.132-.647.2-1.211.276-1.691h.888l-.144,1.139h.024a2.538,2.538,0,0,1,2.147-1.271,1.428,1.428,0,0,1,1.475,1.619,5.59,5.59,0,0,1-.108.936l-.647,3.382h-1l.636-3.346a3.83,3.83,0,0,0,.084-.744c0-.587-.228-1.02-.912-1.02a2.556,2.556,0,0,0-1.979,2.291l-.528,2.818Z" transform="translate(0 0)"/>
      <path class="cls-4" d="M238.41,56.448a4,4,0,0,1-1.919.456,2.09,2.09,0,0,1-2.207-2.327c0-1.751,1.295-3.73,3.166-3.73a1.508,1.508,0,0,1,1.7,1.487c0,1.523-1.715,1.931-3.862,1.9a2.411,2.411,0,0,0,.12,1.1,1.321,1.321,0,0,0,1.3.78,3.238,3.238,0,0,0,1.559-.408Zm-1.1-4.821c-.947,0-1.655.923-1.9,1.835,1.56.012,2.783-.192,2.783-1.091C238.195,51.891,237.835,51.627,237.307,51.627Z" transform="translate(0 0)"/>
      <path class="cls-4" d="M243.4,48.821a8.817,8.817,0,0,1,1.763-.18,2.858,2.858,0,0,1,1.931.588,1.747,1.747,0,0,1,.6,1.343,2.51,2.51,0,0,1-1.919,2.338l-.012.024c.563.192.839.792.9,1.631a13.509,13.509,0,0,0,.252,2.219h-1.032a18.741,18.741,0,0,1-.192-1.955c-.06-1.1-.468-1.571-1.271-1.571h-.888l-.66,3.526h-1Zm.288,3.67h.888a1.9,1.9,0,0,0,2.075-1.8c0-.863-.647-1.247-1.559-1.247a3.3,3.3,0,0,0-.839.084Z" transform="translate(0 0)"/>
      <path class="cls-4" d="M252.306,56.448a4,4,0,0,1-1.919.456,2.09,2.09,0,0,1-2.207-2.327c0-1.751,1.295-3.73,3.166-3.73a1.508,1.508,0,0,1,1.7,1.487c0,1.523-1.715,1.931-3.862,1.9a2.411,2.411,0,0,0,.12,1.1,1.321,1.321,0,0,0,1.3.78,3.238,3.238,0,0,0,1.559-.408Zm-1.1-4.821c-.947,0-1.655.923-1.9,1.835,1.56.012,2.783-.192,2.783-1.091C252.09,51.891,251.73,51.627,251.2,51.627Z" transform="translate(0 0)"/>
      <path class="cls-4" d="M253.041,59.159l1.163-6.116c.12-.7.24-1.476.324-2.063h.912l-.168,1.091h.024a2.625,2.625,0,0,1,2.087-1.223c1.259,0,1.787,1.031,1.787,2.1,0,2.039-1.463,3.97-3.394,3.97a2.552,2.552,0,0,1-1.259-.264h-.024l-.468,2.506Zm1.631-3.346a1.751,1.751,0,0,0,1.1.324c1.283,0,2.363-1.6,2.363-3.119,0-.611-.276-1.343-1.116-1.343-.779,0-1.763.9-2.062,2.519Z" transform="translate(0 0)"/>
      <path class="cls-4" d="M259.9,55.777a2.643,2.643,0,0,0,1.248.36,1,1,0,0,0,1.1-.948c0-.456-.2-.731-.8-1.067a1.732,1.732,0,0,1-1.043-1.475,1.911,1.911,0,0,1,2.1-1.8,2.412,2.412,0,0,1,1.211.288l-.276.756a2.074,2.074,0,0,0-1.007-.264.933.933,0,0,0-1.032.875c0,.42.276.684.792.972A1.826,1.826,0,0,1,263.286,55a1.976,1.976,0,0,1-2.219,1.907,2.543,2.543,0,0,1-1.439-.4Z" transform="translate(0 0)"/>
      <path class="cls-4" d="M269.9,53.27a3.479,3.479,0,0,1-3.214,3.646,2.215,2.215,0,0,1-2.267-2.387,3.478,3.478,0,0,1,3.214-3.682A2.214,2.214,0,0,1,269.9,53.27Zm-4.45,1.224c0,.947.516,1.631,1.367,1.631,1.175,0,2.063-1.511,2.063-2.866a1.435,1.435,0,0,0-1.355-1.619C266.275,51.639,265.436,53.162,265.448,54.494Z" transform="translate(0 0)"/>
      <path class="cls-4" d="M270.6,56.784l.779-4.114c.132-.647.2-1.211.276-1.691h.888l-.144,1.139h.024a2.538,2.538,0,0,1,2.147-1.271,1.428,1.428,0,0,1,1.475,1.619,5.59,5.59,0,0,1-.108.936l-.647,3.382h-1l.636-3.346a3.83,3.83,0,0,0,.084-.744c0-.587-.228-1.02-.912-1.02a2.556,2.556,0,0,0-1.979,2.291l-.528,2.818Z" transform="translate(0 0)"/>
      <path class="cls-4" d="M277.052,55.777a2.643,2.643,0,0,0,1.247.36,1,1,0,0,0,1.1-.948c0-.456-.2-.731-.8-1.067a1.732,1.732,0,0,1-1.043-1.475,1.911,1.911,0,0,1,2.1-1.8,2.412,2.412,0,0,1,1.211.288l-.276.756a2.074,2.074,0,0,0-1.007-.264.933.933,0,0,0-1.032.875c0,.42.276.684.792.972A1.826,1.826,0,0,1,280.434,55a1.976,1.976,0,0,1-2.219,1.907,2.543,2.543,0,0,1-1.439-.4Z" transform="translate(0 0)"/>
      <path class="cls-4" d="M285.665,56.448a4,4,0,0,1-1.919.456,2.09,2.09,0,0,1-2.207-2.327c0-1.751,1.295-3.73,3.166-3.73a1.508,1.508,0,0,1,1.7,1.487c0,1.523-1.715,1.931-3.862,1.9a2.411,2.411,0,0,0,.12,1.1,1.321,1.321,0,0,0,1.3.78,3.238,3.238,0,0,0,1.559-.408Zm-1.1-4.821c-.947,0-1.655.923-1.9,1.835,1.56.012,2.783-.192,2.783-1.091C285.449,51.891,285.09,51.627,284.562,51.627Z" transform="translate(0 0)"/>
      <path class="cls-4" d="M175.6,63.22a8.855,8.855,0,0,1,1.763-.18,2.858,2.858,0,0,1,1.931.588,1.747,1.747,0,0,1,.6,1.343,2.51,2.51,0,0,1-1.919,2.338l-.012.024c.563.192.839.792.9,1.631a13.509,13.509,0,0,0,.252,2.219h-1.032a18.741,18.741,0,0,1-.192-1.955c-.06-1.1-.468-1.571-1.271-1.571h-.888l-.66,3.526h-1Zm.288,3.67h.888a1.9,1.9,0,0,0,2.075-1.8c0-.863-.647-1.247-1.559-1.247a3.3,3.3,0,0,0-.839.084Z" transform="translate(0 0)"/>
      <path class="cls-4" d="M184.118,71.184a14.909,14.909,0,0,1,.132-1.5h-.024a2.54,2.54,0,0,1-2.254,1.631A1.72,1.72,0,0,1,180.3,69.4a4.054,4.054,0,0,1,4.018-4.149,5.417,5.417,0,0,1,1.559.228l-.588,3.022a13.269,13.269,0,0,0-.251,2.687Zm.648-5.061a2.683,2.683,0,0,0-.7-.084,3.1,3.1,0,0,0-2.734,3.178c0,.647.228,1.283,1,1.283.827,0,1.811-1.08,2.1-2.626Z" transform="translate(0 0)"/>
      <path class="cls-4" d="M186.532,71.184l1.115-5.8h1l-1.116,5.8Zm1.3-7.424a.661.661,0,0,1,.659-.672.577.577,0,0,1,.588.624.656.656,0,0,1-.672.671A.574.574,0,0,1,187.827,63.76Z" transform="translate(0 0)"/>
      <path class="cls-4" d="M189.328,70.177a2.643,2.643,0,0,0,1.248.36,1,1,0,0,0,1.1-.948c0-.456-.2-.731-.8-1.067a1.732,1.732,0,0,1-1.043-1.475,1.911,1.911,0,0,1,2.1-1.8,2.412,2.412,0,0,1,1.211.288l-.276.755a2.08,2.08,0,0,0-1.007-.264.933.933,0,0,0-1.032.875c0,.42.276.684.792.972A1.826,1.826,0,0,1,192.71,69.4a1.976,1.976,0,0,1-2.219,1.907,2.543,2.543,0,0,1-1.439-.4Z" transform="translate(0 0)"/>
      <path class="cls-4" d="M197.941,70.848a4,4,0,0,1-1.919.456,2.09,2.09,0,0,1-2.207-2.327c0-1.751,1.295-3.729,3.166-3.729a1.508,1.508,0,0,1,1.7,1.487c0,1.523-1.715,1.931-3.862,1.9a2.411,2.411,0,0,0,.12,1.1,1.321,1.321,0,0,0,1.3.779A3.238,3.238,0,0,0,197.8,70.1Zm-1.1-4.821c-.947,0-1.655.923-1.9,1.835,1.56.012,2.783-.192,2.783-1.091C197.725,66.291,197.365,66.027,196.838,66.027Z" transform="translate(0 0)"/>
      <path class="cls-4" d="M205.368,62.669l-1.271,6.68a14.616,14.616,0,0,0-.252,1.835h-.912l.156-1.151h-.024a2.476,2.476,0,0,1-2.086,1.283c-1.127,0-1.739-.923-1.739-2.111a3.816,3.816,0,0,1,3.586-3.958,2.636,2.636,0,0,1,1.032.2l.516-2.782ZM203.7,66.291a1.81,1.81,0,0,0-.959-.24c-1.391,0-2.471,1.475-2.471,3.022,0,.7.24,1.427,1.092,1.427.768,0,1.691-.875,1.943-2.183Z" transform="translate(0 0)"/>
      <path class="cls-4" d="M207.82,71.184l.947-5.025H208l.144-.779h.779l.06-.3a3.386,3.386,0,0,1,.947-2.027,2.05,2.05,0,0,1,1.379-.516,1.569,1.569,0,0,1,.792.156l-.216.792a1.431,1.431,0,0,0-.587-.108c-.792,0-1.175.768-1.343,1.727l-.048.276h1.3l-.156.779h-1.283l-.959,5.025Z" transform="translate(0 0)"/>
      <path class="cls-4" d="M211.072,71.184l.708-3.742c.144-.755.24-1.523.3-2.062h.875c-.048.408-.1.815-.156,1.259h.036a2.1,2.1,0,0,1,1.775-1.391,1.941,1.941,0,0,1,.276.024l-.192.983a1.4,1.4,0,0,0-.264-.024c-.863,0-1.631,1.043-1.883,2.4l-.48,2.555Z" transform="translate(0 0)"/>
      <path class="cls-4" d="M220.38,67.67a3.479,3.479,0,0,1-3.214,3.646,2.215,2.215,0,0,1-2.267-2.387,3.478,3.478,0,0,1,3.214-3.682A2.214,2.214,0,0,1,220.38,67.67Zm-4.45,1.224c0,.947.516,1.631,1.367,1.631,1.175,0,2.063-1.511,2.063-2.866a1.435,1.435,0,0,0-1.355-1.619C216.758,66.039,215.918,67.562,215.93,68.894Z" transform="translate(0 0)"/>
      <path class="cls-4" d="M221.079,71.184l.779-4.114c.12-.647.2-1.211.264-1.691H223l-.156,1.091h.036a2.478,2.478,0,0,1,2.039-1.223,1.263,1.263,0,0,1,1.355,1.295,2.489,2.489,0,0,1,2.135-1.295,1.378,1.378,0,0,1,1.4,1.523,5.9,5.9,0,0,1-.1.983l-.648,3.43H228.1l.624-3.346a3.844,3.844,0,0,0,.084-.755c0-.612-.228-1.008-.875-1.008-.72,0-1.571.84-1.811,2.135l-.563,2.975h-.959l.647-3.406a3.735,3.735,0,0,0,.072-.708c0-.492-.132-1-.863-1s-1.631.959-1.859,2.195l-.54,2.915Z" transform="translate(0 0)"/>
      <path class="cls-4" d="M234.506,63.209a9.075,9.075,0,0,1,1.739-.168,2.673,2.673,0,0,1,1.859.563,1.568,1.568,0,0,1,.588,1.26,2.192,2.192,0,0,1-1.751,2.015V66.9a1.787,1.787,0,0,1,1.332,1.8,2.34,2.34,0,0,1-.972,1.871,4.275,4.275,0,0,1-2.614.66,10.071,10.071,0,0,1-1.679-.108Zm-.384,7.172a6.12,6.12,0,0,0,.828.048c1.175.012,2.279-.48,2.279-1.775,0-.947-.8-1.367-1.715-1.367h-.8Zm.744-3.85h.744c1.151,0,2.051-.6,2.051-1.583,0-.78-.587-1.116-1.463-1.116a3.216,3.216,0,0,0-.828.084Z" transform="translate(0 0)"/>
      <path class="cls-4" d="M240.542,65.38l.576,3.13c.132.66.2,1.091.264,1.523h.024c.156-.372.324-.78.624-1.415L243.5,65.38h1.056l-2.171,4.414a10.825,10.825,0,0,1-2,3.046,3.634,3.634,0,0,1-1.691,1.007l-.24-.852a3.884,3.884,0,0,0,1.067-.564,4.5,4.5,0,0,0,1.115-1.331.411.411,0,0,0,.036-.264l-1.164-5.457Z" transform="translate(0 0)"/>
      <path class="cls-4" d="M244.611,70.177a2.643,2.643,0,0,0,1.247.36,1,1,0,0,0,1.1-.948c0-.456-.2-.731-.8-1.067a1.732,1.732,0,0,1-1.043-1.475,1.911,1.911,0,0,1,2.1-1.8,2.412,2.412,0,0,1,1.211.288l-.276.755a2.08,2.08,0,0,0-1.007-.264.933.933,0,0,0-1.032.875c0,.42.276.684.792.972a1.826,1.826,0,0,1,1.092,1.523,1.976,1.976,0,0,1-2.219,1.907,2.543,2.543,0,0,1-1.439-.4Z" transform="translate(0 0)"/>
      <path class="cls-4" d="M251.641,63.82l-.3,1.559h1.391l-.156.779h-1.392l-.54,2.818a5.089,5.089,0,0,0-.108.936.489.489,0,0,0,.552.552,2.754,2.754,0,0,0,.468-.036l-.048.779a2.324,2.324,0,0,1-.768.108,1.079,1.079,0,0,1-1.224-1.127,5.4,5.4,0,0,1,.12-1.091l.576-2.938h-.84l.156-.779h.828l.251-1.308Z" transform="translate(0 0)"/>
      <path class="cls-4" d="M256.644,71.184a14.909,14.909,0,0,1,.132-1.5h-.024a2.54,2.54,0,0,1-2.254,1.631A1.72,1.72,0,0,1,252.83,69.4a4.054,4.054,0,0,1,4.018-4.149,5.417,5.417,0,0,1,1.559.228L257.82,68.5a13.269,13.269,0,0,0-.251,2.687Zm.648-5.061a2.683,2.683,0,0,0-.7-.084,3.1,3.1,0,0,0-2.734,3.178c0,.647.228,1.283,1,1.283.827,0,1.811-1.08,2.1-2.626Z" transform="translate(0 0)"/>
      <path class="cls-4" d="M259.058,71.184l.779-4.114c.132-.647.2-1.211.276-1.691H261l-.144,1.139h.024a2.538,2.538,0,0,1,2.147-1.271,1.429,1.429,0,0,1,1.475,1.619,5.59,5.59,0,0,1-.108.935l-.647,3.382h-1l.636-3.346a3.83,3.83,0,0,0,.084-.744c0-.587-.228-1.02-.912-1.02a2.556,2.556,0,0,0-1.979,2.291l-.528,2.818Z" transform="translate(0 0)"/>
      <path class="cls-4" d="M271.642,62.669l-1.271,6.68a14.616,14.616,0,0,0-.252,1.835h-.912l.156-1.151h-.024a2.476,2.476,0,0,1-2.086,1.283c-1.127,0-1.739-.923-1.739-2.111a3.816,3.816,0,0,1,3.586-3.958,2.636,2.636,0,0,1,1.032.2l.516-2.782Zm-1.667,3.622a1.81,1.81,0,0,0-.959-.24c-1.391,0-2.471,1.475-2.471,3.022,0,.7.24,1.427,1.092,1.427.768,0,1.691-.875,1.943-2.183Z" transform="translate(0 0)"/>
      <path class="cls-4" d="M275.952,70.848a4,4,0,0,1-1.919.456,2.09,2.09,0,0,1-2.207-2.327c0-1.751,1.295-3.729,3.166-3.729a1.508,1.508,0,0,1,1.7,1.487c0,1.523-1.715,1.931-3.862,1.9a2.411,2.411,0,0,0,.12,1.1,1.321,1.321,0,0,0,1.3.779,3.238,3.238,0,0,0,1.559-.408Zm-1.1-4.821c-.947,0-1.655.923-1.9,1.835,1.56.012,2.783-.192,2.783-1.091C275.736,66.291,275.376,66.027,274.848,66.027Z" transform="translate(0 0)"/>
      <path class="cls-4" d="M277.2,71.184l.708-3.742c.144-.755.24-1.523.3-2.062h.875c-.048.408-.1.815-.156,1.259h.036a2.1,2.1,0,0,1,1.775-1.391,1.941,1.941,0,0,1,.276.024l-.192.983a1.4,1.4,0,0,0-.264-.024c-.863,0-1.631,1.043-1.883,2.4l-.48,2.555Z" transform="translate(0 0)"/>
      <path class="cls-4" d="M287.891,67.382h-2.938l-.552,2.95h3.31l-.168.852h-4.306l1.535-8.083H288.9l-.168.852h-3.118l-.492,2.59h2.938Z" transform="translate(0 0)"/>
      <path class="cls-4" d="M296.446,63.484a1.431,1.431,0,0,0-.587-.108c-.792,0-1.176.768-1.343,1.727l-.048.276h1.284l-.144.779h-1.3l-.947,5.025h-1l.959-5.025h-2.351l-.948,5.025h-1l.948-5.025h-.768l.144-.779h.779l.048-.264a3.744,3.744,0,0,1,.876-1.9,1.9,1.9,0,0,1,1.4-.551,1.626,1.626,0,0,1,.744.167l-.3.78a.979.979,0,0,0-.479-.12c-.792,0-1.1.8-1.259,1.643l-.048.24h2.351l.06-.3a3.529,3.529,0,0,1,.948-2.027,2.071,2.071,0,0,1,1.379-.516,1.66,1.66,0,0,1,.8.156Z" transform="translate(0 0)"/>
      <path class="cls-4" d="M299.807,70.848a4,4,0,0,1-1.919.456,2.09,2.09,0,0,1-2.207-2.327c0-1.751,1.295-3.729,3.166-3.729a1.508,1.508,0,0,1,1.7,1.487c0,1.523-1.715,1.931-3.862,1.9a2.411,2.411,0,0,0,.12,1.1,1.321,1.321,0,0,0,1.3.779,3.238,3.238,0,0,0,1.559-.408Zm-1.1-4.821c-.947,0-1.655.923-1.9,1.835,1.56.012,2.783-.192,2.783-1.091C299.591,66.291,299.231,66.027,298.7,66.027Z" transform="translate(0 0)"/>
      <path class="cls-4" d="M305.051,70.956a4.006,4.006,0,0,1-1.679.348,2.085,2.085,0,0,1-2.23-2.243,3.675,3.675,0,0,1,3.55-3.8,2.958,2.958,0,0,1,1.211.252l-.288.792a2.253,2.253,0,0,0-.983-.216,2.7,2.7,0,0,0-2.458,2.854,1.367,1.367,0,0,0,1.439,1.547,3.054,3.054,0,0,0,1.343-.324Z" transform="translate(0 0)"/>
      <path class="cls-4" d="M308.808,63.82l-.3,1.559H309.9l-.156.779h-1.392l-.54,2.818a5.089,5.089,0,0,0-.108.936.489.489,0,0,0,.552.552,2.754,2.754,0,0,0,.468-.036l-.048.779a2.324,2.324,0,0,1-.768.108,1.079,1.079,0,0,1-1.224-1.127,5.4,5.4,0,0,1,.12-1.091l.576-2.938h-.839l.156-.779h.828l.251-1.308Z" transform="translate(0 0)"/>
      <path class="cls-4" d="M310.009,70.177a2.643,2.643,0,0,0,1.247.36,1,1,0,0,0,1.1-.948c0-.456-.2-.731-.8-1.067a1.732,1.732,0,0,1-1.043-1.475,1.911,1.911,0,0,1,2.1-1.8,2.412,2.412,0,0,1,1.211.288l-.276.755a2.08,2.08,0,0,0-1.007-.264.933.933,0,0,0-1.032.875c0,.42.276.684.792.972a1.826,1.826,0,0,1,1.092,1.523,1.976,1.976,0,0,1-2.219,1.907,2.543,2.543,0,0,1-1.439-.4Z" transform="translate(0 0)"/>
    </g>
    <g>
      <path class="cls-5" d="M234.57,100.558c-8.737-26.061-20.725-22.115-31.948.264" transform="translate(0 0)"/>
      <path class="cls-4" d="M234.154,99.39l-2.828-.7-.028.1,2.752,3.39,2.159,3.768q-.189-2.163-.378-4.327l.324-4.355-.066-.068Z" transform="translate(0 0)"/>
    </g>
    <g>
      <path class="cls-6" d="M105.228,86.283V92.5h-1.41V86.283Z" transform="translate(0 0)"/>
      <path class="cls-6" d="M106.424,89.426c0-.562-.018-1.042-.037-1.438h1.18l.064.608h.028a1.563,1.563,0,0,1,1.364-.71,1.277,1.277,0,0,1,1.235.765h.019a2.015,2.015,0,0,1,.581-.543,1.627,1.627,0,0,1,.857-.222c.866,0,1.521.608,1.521,1.954V92.5h-1.364V90.044c0-.654-.212-1.032-.664-1.032a.686.686,0,0,0-.645.489,1.176,1.176,0,0,0-.055.359V92.5h-1.364V89.97c0-.571-.2-.958-.645-.958a.714.714,0,0,0-.654.507.934.934,0,0,0-.055.351V92.5h-1.364Z" transform="translate(0 0)"/>
      <path class="cls-6" d="M114.344,89.426c0-.562-.018-1.042-.037-1.438h1.18l.064.608h.028a1.563,1.563,0,0,1,1.364-.71,1.277,1.277,0,0,1,1.235.765h.019a2.015,2.015,0,0,1,.581-.543,1.627,1.627,0,0,1,.857-.222c.866,0,1.521.608,1.521,1.954V92.5h-1.364V90.044c0-.654-.212-1.032-.664-1.032a.686.686,0,0,0-.645.489,1.176,1.176,0,0,0-.055.359V92.5h-1.364V89.97c0-.571-.2-.958-.645-.958a.714.714,0,0,0-.654.507.934.934,0,0,0-.055.351V92.5h-1.364Z" transform="translate(0 0)"/>
      <path class="cls-6" d="M126.514,91.048c0,.59.019,1.069.037,1.447h-1.216l-.064-.636h-.028a1.608,1.608,0,0,1-1.41.737c-.913,0-1.585-.572-1.585-1.963V87.988h1.41v2.424c0,.654.212,1.051.7,1.051a.754.754,0,0,0,.7-.488.788.788,0,0,0,.046-.3V87.988h1.41Z" transform="translate(0 0)"/>
      <path class="cls-6" d="M127.635,89.426c0-.562-.018-1.042-.037-1.438h1.216l.065.618h.027a1.65,1.65,0,0,1,1.392-.719c.922,0,1.613.608,1.613,1.936V92.5h-1.4V90c0-.581-.2-.977-.709-.977a.747.747,0,0,0-.709.525.957.957,0,0,0-.056.35v2.6h-1.4Z" transform="translate(0 0)"/>
      <path class="cls-6" d="M137.484,90.191a2.261,2.261,0,0,1-2.378,2.406,2.208,2.208,0,0,1-2.332-2.323,2.25,2.25,0,0,1,2.405-2.387A2.192,2.192,0,0,1,137.484,90.191Zm-3.263.046c0,.774.323,1.354.922,1.354.543,0,.894-.543.894-1.354,0-.673-.258-1.355-.894-1.355C134.47,88.882,134.221,89.574,134.221,90.237Z" transform="translate(0 0)"/>
      <path class="cls-6" d="M138.338,91.27a2.747,2.747,0,0,0,1.208.341c.424,0,.6-.147.6-.378s-.138-.341-.664-.516c-.931-.313-1.291-.82-1.281-1.355,0-.838.719-1.475,1.834-1.475a3.023,3.023,0,0,1,1.271.258l-.249.968a2.21,2.21,0,0,0-.977-.258c-.341,0-.535.139-.535.369,0,.212.175.323.728.516.857.295,1.217.729,1.226,1.392,0,.839-.664,1.457-1.954,1.457a3.193,3.193,0,0,1-1.456-.313Z" transform="translate(0 0)"/>
      <path class="cls-6" d="M143.911,86.7v1.29h1v1.032h-1v1.631c0,.544.129.792.553.792a2.328,2.328,0,0,0,.415-.037l.009,1.06a2.748,2.748,0,0,1-.913.12,1.458,1.458,0,0,1-1.051-.387,1.868,1.868,0,0,1-.387-1.336V89.021h-.6V87.988h.6v-.977Z" transform="translate(0 0)"/>
      <path class="cls-6" d="M147.172,86.735a.7.7,0,0,1-.756.7.706.706,0,1,1,.009-1.41A.7.7,0,0,1,147.172,86.735Zm-1.447,5.76V87.988h1.4V92.5Z" transform="translate(0 0)"/>
      <path class="cls-6" d="M148.248,89.426c0-.562-.018-1.042-.037-1.438h1.18l.064.608h.028a1.563,1.563,0,0,1,1.364-.71,1.277,1.277,0,0,1,1.235.765h.019a2.015,2.015,0,0,1,.581-.543,1.627,1.627,0,0,1,.857-.222c.866,0,1.521.608,1.521,1.954V92.5H153.7V90.044c0-.654-.212-1.032-.664-1.032a.686.686,0,0,0-.645.489,1.176,1.176,0,0,0-.055.359V92.5h-1.364V89.97c0-.571-.2-.958-.645-.958a.714.714,0,0,0-.654.507.934.934,0,0,0-.055.351V92.5h-1.364Z" transform="translate(0 0)"/>
      <path class="cls-6" d="M160.418,91.048c0,.59.019,1.069.037,1.447h-1.216l-.064-.636h-.028a1.608,1.608,0,0,1-1.41.737c-.913,0-1.585-.572-1.585-1.963V87.988h1.41v2.424c0,.654.212,1.051.7,1.051a.754.754,0,0,0,.7-.488.788.788,0,0,0,.046-.3V87.988h1.41Z" transform="translate(0 0)"/>
      <path class="cls-6" d="M161.538,85.952h1.4V92.5h-1.4Z" transform="translate(0 0)"/>
      <path class="cls-6" d="M166.634,92.5l-.083-.452h-.028a1.624,1.624,0,0,1-1.29.553,1.382,1.382,0,0,1-1.457-1.383c0-1.17,1.051-1.732,2.645-1.723v-.064c0-.24-.129-.581-.82-.581a2.533,2.533,0,0,0-1.245.341l-.258-.9a3.723,3.723,0,0,1,1.751-.4,1.753,1.753,0,0,1,1.981,1.945V91.4a7.007,7.007,0,0,0,.064,1.1Zm-.166-2.129c-.737-.009-1.309.166-1.309.709a.5.5,0,0,0,.553.535.765.765,0,0,0,.728-.516,1,1,0,0,0,.028-.24Z" transform="translate(0 0)"/>
      <path class="cls-6" d="M168.934,89.426c0-.562-.018-1.042-.037-1.438h1.216l.064.618h.028a1.65,1.65,0,0,1,1.392-.719c.922,0,1.613.608,1.613,1.936V92.5h-1.4V90c0-.581-.2-.977-.709-.977a.747.747,0,0,0-.709.525.957.957,0,0,0-.056.35v2.6h-1.4Z" transform="translate(0 0)"/>
      <path class="cls-6" d="M175.844,86.7v1.29h1v1.032h-1v1.631c0,.544.129.792.553.792a2.328,2.328,0,0,0,.415-.037l.009,1.06a2.748,2.748,0,0,1-.913.12,1.458,1.458,0,0,1-1.051-.387,1.868,1.868,0,0,1-.387-1.336V89.021h-.6V87.988h.6v-.977Z" transform="translate(0 0)"/>
    </g>
    <g>
      <path class="cls-7" d="M74.964,127.473c.919.779,3.588-.891,5.969-3.723a.4.4,0,0,0,.036-.041c.91.549,1.839.634,2.253.149l.015-.014.061.057a.449.449,0,0,0-.076.073c-.492.579-.061,1.757.96,2.659-.917,3.631-.908,6.952.057,7.533,1,.6,2.657-1.991,3.694-5.788a22.828,22.828,0,0,0,.75-4.293,41.649,41.649,0,0,1,6.172-9.417,42.738,42.738,0,0,1,7.55-7.057,22.739,22.739,0,0,0,4.165-1.44c3.584-1.625,5.882-3.667,5.126-4.566-.685-.817-3.662-.4-6.894.908a5.542,5.542,0,0,0-.628-.628,5.029,5.029,0,0,0-1.381-.847,4.651,4.651,0,0,0-1.263-1.636c-.033-.026-.061-.047-.093-.074,2.046-2.582,3.018-5.1,2.178-5.814s-3.2.613-5.462,3.02a2.374,2.374,0,0,0-2.229-.2l-.083-.07c.409-.77-.151-2.118-1.346-3.134a4.3,4.3,0,0,0-.362-.282c.467-3.323.213-6.152-.666-6.646-1.015-.57-2.476,2.166-3.263,6.107a23.352,23.352,0,0,0-.484,5,44.229,44.229,0,0,1-5.2,7.479,39.031,39.031,0,0,1-9.849,8.53l-.194.227a26.657,26.657,0,0,0-2.837.881c-3.768,1.4-6.236,3.284-5.513,4.2.69.873,4.076.535,7.679-.738.028.026.062.055.095.085,1.069.91,2.336,1.166,2.842.575a.885.885,0,0,0,.1-.144l.024.021c-.346.567.019,1.566.855,2.387a1.393,1.393,0,0,0-.108.128c-2.383,2.833-3.57,5.759-2.655,6.537Z" transform="translate(0 0)"/>
      <path class="cls-8" d="M84.97,107.163c2.326-2.729,6.111-3.323,8.462-1.322s2.362,5.83.036,8.56-6.112,3.319-8.454,1.324-2.367-5.835-.043-8.563Z" transform="translate(0 0)"/>
    </g>
    <g>
      <path class="cls-4" d="M74.578,146.018a3.911,3.911,0,0,1-1.557.261,2.886,2.886,0,0,1-3.178-3.034,3.093,3.093,0,0,1,3.313-3.223,3.58,3.58,0,0,1,1.495.27l-.279,1.089a2.968,2.968,0,0,0-1.152-.225,1.995,1.995,0,0,0,.009,3.988,3.43,3.43,0,0,0,1.143-.2Z" transform="translate(0 0)"/>
      <path class="cls-4" d="M77.844,146.189l-.081-.441h-.027a1.586,1.586,0,0,1-1.26.54,1.349,1.349,0,0,1-1.422-1.351c0-1.143,1.026-1.692,2.583-1.684v-.063c0-.234-.126-.567-.8-.567a2.474,2.474,0,0,0-1.215.333l-.252-.882a3.635,3.635,0,0,1,1.71-.387,1.712,1.712,0,0,1,1.936,1.9v1.53a6.835,6.835,0,0,0,.063,1.071Zm-.162-2.08c-.72-.009-1.278.162-1.278.693a.492.492,0,0,0,.541.522.747.747,0,0,0,.711-.5.982.982,0,0,0,.027-.234Z" transform="translate(0 0)"/>
      <path class="cls-4" d="M80.094,143.191c0-.549-.018-1.017-.036-1.4h1.188l.063.6h.027a1.613,1.613,0,0,1,1.359-.7c.9,0,1.576.594,1.576,1.891v2.611H82.9v-2.44c0-.567-.2-.954-.693-.954a.73.73,0,0,0-.693.513.937.937,0,0,0-.054.342v2.539H80.094Z" transform="translate(0 0)"/>
      <path class="cls-4" d="M88.672,146.081a3.341,3.341,0,0,1-1.224.2,2.136,2.136,0,0,1-2.332-2.25,2.3,2.3,0,0,1,2.521-2.341,3.166,3.166,0,0,1,1.044.171l-.216,1.017a1.876,1.876,0,0,0-.765-.135,1.234,1.234,0,0,0,.027,2.467,2.11,2.11,0,0,0,.783-.135Z" transform="translate(0 0)"/>
      <path class="cls-4" d="M90.381,144.424c.045.567.6.837,1.242.837a3.872,3.872,0,0,0,1.215-.18l.18.927a4.344,4.344,0,0,1-1.593.27,2.113,2.113,0,0,1-2.35-2.242,2.205,2.205,0,0,1,2.224-2.35,1.953,1.953,0,0,1,1.962,2.2,3.248,3.248,0,0,1-.045.54Zm1.611-.936a.8.8,0,0,0-.774-.892.9.9,0,0,0-.847.892Z" transform="translate(0 0)"/>
      <path class="cls-4" d="M94.08,143.236c0-.648-.018-1.071-.036-1.449h1.179l.045.81H95.3a1.293,1.293,0,0,1,1.188-.909,1.406,1.406,0,0,1,.288.018v1.288a1.958,1.958,0,0,0-.369-.036.879.879,0,0,0-.936.693,1.6,1.6,0,0,0-.027.306v2.232H94.08Z" transform="translate(0 0)"/>
      <path class="cls-4" d="M80.846,156.818a3.911,3.911,0,0,1-1.557.261,2.886,2.886,0,0,1-3.178-3.034,3.093,3.093,0,0,1,3.313-3.223,3.58,3.58,0,0,1,1.495.27l-.279,1.089a2.968,2.968,0,0,0-1.152-.225,1.995,1.995,0,0,0,.009,3.988,3.43,3.43,0,0,0,1.143-.2Z" transform="translate(0 0)"/>
      <path class="cls-4" d="M82.583,155.224c.045.567.6.837,1.242.837a3.872,3.872,0,0,0,1.215-.18l.18.927a4.342,4.342,0,0,1-1.593.27,2.113,2.113,0,0,1-2.35-2.242,2.205,2.205,0,0,1,2.224-2.35,1.953,1.953,0,0,1,1.963,2.2,3.248,3.248,0,0,1-.045.54Zm1.611-.936a.8.8,0,0,0-.774-.892.9.9,0,0,0-.847.892Z" transform="translate(0 0)"/>
      <path class="cls-4" d="M86.282,150.6H87.65v6.392H86.282Z" transform="translate(0 0)"/>
      <path class="cls-4" d="M88.756,150.6h1.368v6.392H88.756Z" transform="translate(0 0)"/>
    </g>
    <g>
      <path class="cls-4" d="M11.035,89.869H8.75v1.475H11.3V92.5H7.34V86.284h3.834v1.152H8.75v1.29h2.286Z" transform="translate(0 0)"/>
      <path class="cls-4" d="M12.212,89.427c0-.562-.018-1.042-.037-1.438h1.216l.064.618h.028a1.65,1.65,0,0,1,1.392-.719c.922,0,1.613.608,1.613,1.936V92.5h-1.4V90c0-.581-.2-.977-.709-.977a.747.747,0,0,0-.709.525.957.957,0,0,0-.056.35v2.6h-1.4Z" transform="translate(0 0)"/>
      <path class="cls-4" d="M17.25,91.694l1.419-1.779c.258-.3.461-.525.719-.8v-.019H17.407V87.989h3.687v.839l-1.355,1.705a10.767,10.767,0,0,1-.737.829v.019h2.166V92.5H17.25Z" transform="translate(0 0)"/>
      <path class="cls-4" d="M23.062,87.989l.673,2.212c.074.268.166.6.221.839h.028c.064-.24.138-.581.2-.839l.553-2.212h1.5l-1.051,2.968a6.915,6.915,0,0,1-1.585,2.958,2.583,2.583,0,0,1-1.355.617l-.295-1.189a1.76,1.76,0,0,0,.608-.239,1.612,1.612,0,0,0,.581-.562.366.366,0,0,0,.074-.2.512.512,0,0,0-.064-.23l-1.65-4.12Z" transform="translate(0 0)"/>
      <path class="cls-4" d="M26.828,89.427c0-.562-.018-1.042-.037-1.438h1.18l.064.608h.028a1.563,1.563,0,0,1,1.364-.71,1.277,1.277,0,0,1,1.235.765h.019a2.015,2.015,0,0,1,.581-.543,1.627,1.627,0,0,1,.857-.222c.866,0,1.521.608,1.521,1.954V92.5H32.275V90.044c0-.654-.212-1.032-.663-1.032a.686.686,0,0,0-.646.489,1.176,1.176,0,0,0-.055.359V92.5H29.548V89.97c0-.571-.2-.958-.646-.958a.714.714,0,0,0-.654.507.934.934,0,0,0-.055.351V92.5H26.828Z" transform="translate(0 0)"/>
      <path class="cls-4" d="M35.828,90.689c.046.581.617.857,1.271.857a3.962,3.962,0,0,0,1.245-.185l.184.949a4.444,4.444,0,0,1-1.631.277,2.163,2.163,0,0,1-2.405-2.295,2.257,2.257,0,0,1,2.276-2.406,2,2,0,0,1,2.009,2.249,3.3,3.3,0,0,1-.046.553Zm1.649-.958a.814.814,0,0,0-.792-.913.92.92,0,0,0-.866.913Z" transform="translate(0 0)"/>
      <path class="cls-4" d="M42.018,89.611v.931H39.6v-.931Z" transform="translate(0 0)"/>
      <path class="cls-4" d="M42.9,86.367a12.532,12.532,0,0,1,1.9-.129,3.994,3.994,0,0,1,2.543.664,2.747,2.747,0,0,1,1.051,2.341,3.15,3.15,0,0,1-1.032,2.516,4.458,4.458,0,0,1-2.866.8,12.1,12.1,0,0,1-1.594-.092Zm1.41,5.069a2.564,2.564,0,0,0,.488.028,1.925,1.925,0,0,0,2.1-2.175,1.782,1.782,0,0,0-1.954-1.973,2.9,2.9,0,0,0-.636.056Z" transform="translate(0 0)"/>
      <path class="cls-4" d="M50.749,86.735a.7.7,0,0,1-.756.7A.706.706,0,1,1,50,86.026.7.7,0,0,1,50.749,86.735ZM49.3,92.5V87.989h1.4V92.5Z" transform="translate(0 0)"/>
      <path class="cls-4" d="M51.825,89.473c0-.664-.018-1.1-.037-1.484H53l.046.83h.037a1.325,1.325,0,0,1,1.217-.931,1.436,1.436,0,0,1,.295.019v1.318a2.044,2.044,0,0,0-.378-.037.9.9,0,0,0-.958.709,1.642,1.642,0,0,0-.028.313V92.5h-1.4Z" transform="translate(0 0)"/>
      <path class="cls-4" d="M56.33,90.689c.046.581.617.857,1.272.857a3.961,3.961,0,0,0,1.244-.185l.184.949a4.444,4.444,0,0,1-1.631.277,2.163,2.163,0,0,1-2.405-2.295,2.257,2.257,0,0,1,2.276-2.406,2,2,0,0,1,2.009,2.249,3.3,3.3,0,0,1-.046.553Zm1.649-.958a.814.814,0,0,0-.792-.913.92.92,0,0,0-.866.913Z" transform="translate(0 0)"/>
      <path class="cls-4" d="M63.5,92.385a3.426,3.426,0,0,1-1.254.2,2.186,2.186,0,0,1-2.387-2.3,2.351,2.351,0,0,1,2.581-2.4,3.254,3.254,0,0,1,1.069.175L63.285,89.1a1.915,1.915,0,0,0-.783-.138,1.263,1.263,0,0,0,.028,2.525,2.17,2.17,0,0,0,.8-.138Z" transform="translate(0 0)"/>
      <path class="cls-4" d="M65.983,86.7v1.29h1v1.032h-1v1.631c0,.544.129.792.553.792a2.328,2.328,0,0,0,.415-.037l.009,1.06a2.748,2.748,0,0,1-.913.12A1.455,1.455,0,0,1,65,92.2a1.866,1.866,0,0,1-.387-1.336V89.021h-.6V87.989h.6v-.977Z" transform="translate(0 0)"/>
      <path class="cls-4" d="M68.829,90.689c.046.581.617.857,1.271.857a3.962,3.962,0,0,0,1.245-.185l.184.949a4.444,4.444,0,0,1-1.631.277,2.163,2.163,0,0,1-2.405-2.295,2.257,2.257,0,0,1,2.276-2.406,2,2,0,0,1,2.009,2.249,3.3,3.3,0,0,1-.046.553Zm1.649-.958a.814.814,0,0,0-.792-.913.92.92,0,0,0-.866.913Z" transform="translate(0 0)"/>
      <path class="cls-4" d="M76.982,85.952v5.2c0,.507.019,1.042.037,1.346H75.774l-.064-.664h-.018a1.574,1.574,0,0,1-1.41.765,2.069,2.069,0,0,1-1.926-2.313,2.131,2.131,0,0,1,2.019-2.4,1.372,1.372,0,0,1,1.188.507h.019V85.952Zm-1.4,3.944a2.24,2.24,0,0,0-.019-.249.841.841,0,0,0-.82-.691c-.636,0-.967.571-.967,1.281,0,.765.377,1.244.958,1.244a.82.82,0,0,0,.811-.673,1.206,1.206,0,0,0,.037-.323Z" transform="translate(0 0)"/>
      <path class="cls-4" d="M25.866,97.42a11.5,11.5,0,0,1,1.9-.129,2.981,2.981,0,0,1,1.9.5,1.816,1.816,0,0,1,.664,1.438,1.986,1.986,0,0,1-.571,1.475,2.883,2.883,0,0,1-2.019.654,3.511,3.511,0,0,1-.479-.028v2.221H25.866Zm1.392,2.82a2.167,2.167,0,0,0,.47.037c.746,0,1.207-.377,1.207-1.014,0-.571-.4-.913-1.1-.913a2.376,2.376,0,0,0-.581.056Z" transform="translate(0 0)"/>
      <path class="cls-4" d="M31.089,100.526c0-.664-.018-1.1-.037-1.484H32.26l.046.83h.037a1.325,1.325,0,0,1,1.217-.931,1.436,1.436,0,0,1,.295.019v1.318a2.044,2.044,0,0,0-.378-.037.9.9,0,0,0-.958.709,1.642,1.642,0,0,0-.028.313v2.286h-1.4Z" transform="translate(0 0)"/>
      <path class="cls-4" d="M38.967,101.244a2.261,2.261,0,0,1-2.378,2.406,2.208,2.208,0,0,1-2.332-2.323,2.25,2.25,0,0,1,2.405-2.387A2.192,2.192,0,0,1,38.967,101.244Zm-3.263.046c0,.774.323,1.354.922,1.354.543,0,.894-.543.894-1.354,0-.673-.258-1.355-.894-1.355C35.953,99.936,35.7,100.627,35.7,101.291Z" transform="translate(0 0)"/>
      <path class="cls-4" d="M44.225,97v5.2c0,.507.019,1.042.037,1.346H43.018l-.065-.664h-.018a1.574,1.574,0,0,1-1.41.765,2.069,2.069,0,0,1-1.926-2.313,2.131,2.131,0,0,1,2.018-2.4,1.372,1.372,0,0,1,1.189.507h.019V97Zm-1.4,3.944a2.24,2.24,0,0,0-.019-.249.841.841,0,0,0-.82-.691c-.636,0-.968.571-.968,1.281,0,.765.378,1.244.958,1.244a.82.82,0,0,0,.811-.673,1.206,1.206,0,0,0,.037-.323Z" transform="translate(0 0)"/>
      <path class="cls-4" d="M45.346,100.526c0-.664-.018-1.1-.037-1.484h1.207l.046.83H46.6a1.325,1.325,0,0,1,1.217-.931,1.436,1.436,0,0,1,.295.019v1.318a2.044,2.044,0,0,0-.378-.037.9.9,0,0,0-.958.709,1.642,1.642,0,0,0-.028.313v2.286h-1.4Z" transform="translate(0 0)"/>
      <path class="cls-4" d="M53.068,102.1c0,.59.018,1.069.037,1.447H51.888l-.064-.636H51.8a1.608,1.608,0,0,1-1.41.737c-.912,0-1.585-.572-1.585-1.963V99.042h1.41v2.424c0,.654.212,1.051.7,1.051a.753.753,0,0,0,.7-.488.779.779,0,0,0,.046-.3V99.042h1.41Z" transform="translate(0 0)"/>
      <path class="cls-4" d="M58.492,99.042c-.019.286-.037.664-.037,1.336v2.516a2.589,2.589,0,0,1-.682,2.027,2.778,2.778,0,0,1-1.834.553,3.512,3.512,0,0,1-1.622-.35l.276-1.06a2.769,2.769,0,0,0,1.309.341,1.076,1.076,0,0,0,1.17-1.189v-.295h-.019a1.44,1.44,0,0,1-1.216.59,1.984,1.984,0,0,1-1.908-2.2,2.156,2.156,0,0,1,2.046-2.369,1.358,1.358,0,0,1,1.235.636h.019l.046-.535Zm-1.438,1.834a1.1,1.1,0,0,0-.027-.258.769.769,0,0,0-.756-.618c-.507,0-.921.461-.921,1.281,0,.673.332,1.2.921,1.2a.761.761,0,0,0,.737-.571,1.181,1.181,0,0,0,.046-.369Z" transform="translate(0 0)"/>
    </g>
    <polygon class="cls-9" points="35.259 85.206 28.82 81.489 28.82 74.053 35.259 70.336 41.698 74.053 41.698 81.489 35.259 85.206"/>
    <polygon class="cls-10" points="41.696 74.034 35.257 70.316 35.257 62.881 41.696 59.163 48.135 62.881 48.135 70.316 41.696 74.034"/>
    <polygon class="cls-11" points="60.617 66.541 55.849 72.681 48.135 70.336 48.135 62.747 55.849 60.402 60.617 66.541"/>
    <polygon class="cls-12" points="41.839 57.255 35.4 53.537 35.4 46.102 41.839 42.384 48.278 46.102 48.278 53.537 41.839 57.255"/>
    <polygon class="cls-13" points="54.717 49.82 48.278 46.102 48.278 38.667 54.717 34.949 61.156 38.667 61.156 46.102 54.717 49.82"/>
    <circle class="cls-14" cx="41.839" cy="59.174" r="1.785"/>
    <polygon class="cls-15" points="134.271 82.942 127.832 79.224 127.832 71.789 134.271 68.072 140.71 71.789 140.71 79.224 134.271 82.942"/>
    <polygon class="cls-16" points="140.709 71.77 134.27 68.052 134.27 60.617 140.709 56.899 147.148 60.617 147.148 68.052 140.709 71.77"/>
    <polygon class="cls-17" points="159.629 64.277 154.862 70.417 147.148 68.072 147.148 60.483 154.862 58.138 159.629 64.277"/>
    <circle class="cls-14" cx="140.851" cy="56.91" r="1.785"/>
    <g class="cls-18">
      <rect class="cls-19" x="166.63" y="95.026" width="40.915" height="41.633" transform="translate(-0.532 0.863) rotate(-0.264)"/>
    </g>
    <path class="cls-20" d="M182.258,122.792c.638.4.267,1.165.114,1.7-.181.64-.258,1.313-.483,1.953a20.129,20.129,0,0,1-1.723,3.114c-.565.965-1.295,1.832-1.834,2.817-.528.959-.723,2.275.671,1.638a5.6,5.6,0,0,0,2.273-2.112c.915-1.524,1.114-3.309,2.136-4.8.435-.633,1.623-2.728,2.431-2.093a5.562,5.562,0,0,1,.7,2.619c.192-.537.247-1.116.45-1.647.3-.8.306-.789,1.022-.682,1.544.238,2.121,4.637,2.123,5.942,0,.83.072,5.324,1.507,4.963.424-2.064-.267-3.881-.373-5.905-.085-1.686-.76-3.558-.494-5.226.1-.6.771-1.8,1.487-1.869.83-.083,1.893,1.321,2.52,1.749-.007-.625-1.328-2.027-.413-2.345.734-.255,2.527,1.406,2.974,1.88.612.648,1.133,1.283,1.8,1.88.885.788,1.767,1.467,2.918.878.2-.924-.76-1.205-1.424-1.472a3.372,3.372,0,0,1-2.1-1.6A21.817,21.817,0,0,1,197,121.618a12.315,12.315,0,0,1-.546-2.658c1.125-.514,2.055.681,3.165.64.428-1.527-1.863-1.018-2.236-2a1.675,1.675,0,0,1,.317-1.286c.5-.38,1.749.048,2.269.162a27.107,27.107,0,0,0,3.59.67c.576-1.256-2.951-1.265-3.586-1.382-1.155-.212-2.394-.67-1.3-1.984.834-1,2.512-1.336,3.7-1.746,1.313-.458,4.217-.909,5.08-2.07-2.708-1.127-5.8,2.4-8.759,1.8a2.036,2.036,0,0,1-1.623-1.051,10.438,10.438,0,0,1-1.1-2.181,10.012,10.012,0,0,1,.727-2.909,15.614,15.614,0,0,1,2.221-3.13,8.871,8.871,0,0,0,1.749-3.953c.155-.821.557-2.458-.14-3.134-1.258-1.218-1.487,1.789-1.649,2.489a11.416,11.416,0,0,1-4.448,6.678c-1.2.815-5.506.891-3.592-1.345.284-.33,1.594-.881,1.173-1.379-.376-.444-1.317.348-1.575.62-.358.377-.509,1.206-.933,1.467-.745.458-2.649.291-2.623-.718.068-2.632,6.718-2.875,5.523-5.35-.616-1.278-2.87.026-3.667.519a9.488,9.488,0,0,0-3.553,3.58c-.332.643-.672,1.725-1.1,2.676a10.1,10.1,0,0,0-2.132,1.078A19.458,19.458,0,0,1,180,103.928a10.721,10.721,0,0,1-1.369-2.417,13.89,13.89,0,0,0-2.8-3.917c-.738.845.716,2.519,1.057,3.247a25.7,25.7,0,0,0,1.74,3.5,6.65,6.65,0,0,0,1.236,1.54c.415.365,1.24.7,1.217,1.308-.686.155-1.4-.485-1.981-.759.041.654.893,1.187.941,1.728.162,1.823-2.922-1.756-3.018-.756-.118,1.214,2.254,1.522,1.719,2.732-.6,1.343-3.686.31-4.663.151-.871-.142-6.969-2.83-7.1-1.942-.255,1.768,4.8,2.538,5.833,2.91a18.77,18.77,0,0,1,4.643,2.061c-.024.3-.039.592-.037.89a7.061,7.061,0,0,1,.055,2.412,5.863,5.863,0,0,1-1.791,1.868,18.521,18.521,0,0,1-4.139,2.65c-.207.088-3.675,1.477-3.153,1.917.884.744,3.068-.47,3.887-.967.417-.249,6.322-4.547,6.349-3.418.011.336-.494.41-.692.522a22.12,22.12,0,0,0-2.522,1.4c-.059.041-.926.968-.764.953,1.133-.1,1.863-1.056,2.8-1.553.653-.348,1.634-.386,1.335.684-.3,1.095-2.108,2.191-2.782,3.153-.716,1.033-1.476,1.9-2.273,2.878-.373.458-1.4,2.427.079,2.153.854-.159,1.924-2.158,2.348-2.843C177.506,123.824,179.487,121.091,182.258,122.792Z" transform="translate(0 0)"/>
    <g class="cls-21">
      <rect class="cls-22" x="184.379" y="112.827" width="9.755" height="8.971" transform="matrix(1, -0.009, 0.009, 1, -1.069, 1.742)"/>
    </g>
    <path class="cls-20" d="M186.707,119.974c-7.548-5.22,5.685-7.7,6.523-6.173q2.158,7.784-6.523,6.173C185.623,119.223,188.777,121.4,186.707,119.974Z" transform="translate(0 0)"/>
    <ellipse class="cls-23" cx="187.153" cy="115.514" rx="28.26" ry="28.924" transform="translate(-0.826 1.349) rotate(-0.412)"/>
    <g>
      <path class="cls-5" d="M84.729,112.669c-15.626,27-34.05,18.67-40.088-5.737" transform="translate(0 0)"/>
      <path class="cls-4" d="M84.1,113.739l1.468,2.516.09-.048.515-4.336,1.2-4.175-2.84,3.286-3.35,2.8,0,.095Z" transform="translate(0 0)"/>
    </g>
    <g>
      <path class="cls-5" d="M130.482,110.237q-.243.419-.486.827" transform="translate(0 0)"/>
      <path class="cls-24" d="M129.018,112.651c-14.894,23.424-31.859,15.925-38.141-6.321" transform="translate(0 0)"/>
      <path class="cls-5" d="M90.632,105.431q-.122-.461-.238-.931" transform="translate(0 0)"/>
      <path class="cls-4" d="M129.855,111.308l1.468,2.516.09-.048.515-4.336,1.2-4.175-2.84,3.286-3.35,2.8,0,.095Z" transform="translate(0 0)"/>
    </g>
    <g>
      <path class="cls-4" d="M176.209,140.121v6.068h-1.377v-6.068Z" transform="translate(0 0)"/>
      <path class="cls-4" d="M177.379,143.191c0-.549-.018-1.017-.036-1.4h1.188l.063.6h.027a1.613,1.613,0,0,1,1.359-.7c.9,0,1.576.594,1.576,1.891v2.611h-1.369v-2.44c0-.567-.2-.954-.693-.954a.73.73,0,0,0-.693.513.937.937,0,0,0-.054.342v2.539h-1.368Z" transform="translate(0 0)"/>
      <path class="cls-4" d="M182.653,143.191c0-.549-.018-1.017-.036-1.4H183.8l.063.6h.027a1.613,1.613,0,0,1,1.359-.7c.9,0,1.576.594,1.576,1.891v2.611h-1.369v-2.44c0-.567-.2-.954-.693-.954a.73.73,0,0,0-.693.513.937.937,0,0,0-.054.342v2.539h-1.368Z" transform="translate(0 0)"/>
      <path class="cls-4" d="M190.429,146.189l-.081-.441h-.027a1.586,1.586,0,0,1-1.26.54,1.35,1.35,0,0,1-1.422-1.351c0-1.143,1.026-1.692,2.583-1.684v-.063c0-.234-.126-.567-.8-.567a2.474,2.474,0,0,0-1.215.333l-.252-.882a3.635,3.635,0,0,1,1.71-.387,1.712,1.712,0,0,1,1.936,1.9v1.53a6.835,6.835,0,0,0,.063,1.071Zm-.162-2.08c-.72-.009-1.278.162-1.278.693a.492.492,0,0,0,.541.522.747.747,0,0,0,.711-.5.982.982,0,0,0,.027-.234Z" transform="translate(0 0)"/>
      <path class="cls-4" d="M194.137,140.526v1.26h.981v1.008h-.981v1.593c0,.531.126.774.54.774a2.227,2.227,0,0,0,.405-.036l.009,1.036a2.69,2.69,0,0,1-.891.117,1.424,1.424,0,0,1-1.026-.378,1.824,1.824,0,0,1-.378-1.305v-1.8h-.585v-1.008h.585v-.954Z" transform="translate(0 0)"/>
      <path class="cls-4" d="M196.918,144.424c.045.567.6.837,1.242.837a3.872,3.872,0,0,0,1.215-.18l.18.927a4.342,4.342,0,0,1-1.593.27,2.113,2.113,0,0,1-2.35-2.242,2.205,2.205,0,0,1,2.224-2.35,1.953,1.953,0,0,1,1.963,2.2,3.248,3.248,0,0,1-.045.54Zm1.611-.936a.8.8,0,0,0-.774-.892.9.9,0,0,0-.847.892Z" transform="translate(0 0)"/>
      <path class="cls-4" d="M164.1,150.921v6.068h-1.377v-6.068Z" transform="translate(0 0)"/>
      <path class="cls-4" d="M165.27,153.99c0-.549-.018-1.017-.036-1.4h1.152l.063.594h.027a1.526,1.526,0,0,1,1.333-.693,1.247,1.247,0,0,1,1.207.748h.018a1.964,1.964,0,0,1,.567-.531,1.589,1.589,0,0,1,.837-.216c.846,0,1.485.594,1.485,1.909v2.593H170.59v-2.395c0-.639-.207-1.008-.648-1.008a.67.67,0,0,0-.63.477,1.142,1.142,0,0,0-.054.351v2.575h-1.332v-2.467c0-.558-.2-.936-.63-.936a.7.7,0,0,0-.639.5.908.908,0,0,0-.054.342v2.566H165.27Z" transform="translate(0 0)"/>
      <path class="cls-4" d="M173.01,153.99c0-.549-.018-1.017-.036-1.4h1.152l.063.594h.027a1.527,1.527,0,0,1,1.333-.693,1.248,1.248,0,0,1,1.207.748h.018a1.964,1.964,0,0,1,.567-.531,1.589,1.589,0,0,1,.837-.216c.846,0,1.485.594,1.485,1.909v2.593H178.33v-2.395c0-.639-.207-1.008-.648-1.008a.669.669,0,0,0-.63.477,1.142,1.142,0,0,0-.054.351v2.575h-1.333v-2.467c0-.558-.2-.936-.63-.936a.7.7,0,0,0-.639.5.908.908,0,0,0-.054.342v2.566H173.01Z" transform="translate(0 0)"/>
      <path class="cls-4" d="M184.9,155.575c0,.576.018,1.044.036,1.414h-1.188l-.063-.621h-.027a1.57,1.57,0,0,1-1.377.72c-.891,0-1.548-.558-1.548-1.917v-2.584h1.377v2.368c0,.639.207,1.026.684,1.026a.737.737,0,0,0,.684-.477.763.763,0,0,0,.045-.3v-2.62H184.9Z" transform="translate(0 0)"/>
      <path class="cls-4" d="M186,153.99c0-.549-.018-1.017-.036-1.4h1.188l.063.6h.027a1.613,1.613,0,0,1,1.359-.7c.9,0,1.576.594,1.576,1.891v2.611H188.8v-2.44c0-.567-.2-.954-.693-.954a.73.73,0,0,0-.693.513.937.937,0,0,0-.054.342v2.539H186Z" transform="translate(0 0)"/>
      <path class="cls-4" d="M192.323,155.224c.045.567.6.837,1.242.837a3.872,3.872,0,0,0,1.215-.18l.18.927a4.344,4.344,0,0,1-1.593.27,2.113,2.113,0,0,1-2.35-2.242,2.205,2.205,0,0,1,2.224-2.35,1.953,1.953,0,0,1,1.962,2.2,3.248,3.248,0,0,1-.045.54Zm1.611-.936a.8.8,0,0,0-.774-.892.9.9,0,0,0-.847.892Z" transform="translate(0 0)"/>
      <path class="cls-4" d="M202.342,156.817a3.911,3.911,0,0,1-1.557.261,2.886,2.886,0,0,1-3.178-3.034,3.093,3.093,0,0,1,3.313-3.223,3.58,3.58,0,0,1,1.495.27l-.279,1.089a2.968,2.968,0,0,0-1.152-.225,1.995,1.995,0,0,0,.009,3.988,3.43,3.43,0,0,0,1.143-.2Z" transform="translate(0 0)"/>
      <path class="cls-4" d="M204.077,155.224c.045.567.6.837,1.242.837a3.872,3.872,0,0,0,1.215-.18l.18.927a4.344,4.344,0,0,1-1.593.27,2.113,2.113,0,0,1-2.35-2.242,2.205,2.205,0,0,1,2.224-2.35,1.953,1.953,0,0,1,1.962,2.2,3.248,3.248,0,0,1-.045.54Zm1.611-.936a.8.8,0,0,0-.774-.892.9.9,0,0,0-.847.892Z" transform="translate(0 0)"/>
      <path class="cls-4" d="M207.776,150.6h1.368v6.392h-1.368Z" transform="translate(0 0)"/>
      <path class="cls-4" d="M210.251,150.6h1.368v6.392h-1.368Z" transform="translate(0 0)"/>
    </g>
    <rect class="cls-25" x="0.549" y="28.555" width="321.333" height="137.333"/>
    <rect class="cls-26" x="0.549" y="0.549" width="321.333" height="165.339"/>
    <g>
      <path class="cls-4" d="M18.342,7.075a21.866,21.866,0,0,1,3.547-.252,6.7,6.7,0,0,1,3.583.684A2.642,2.642,0,0,1,26.93,9.884a2.743,2.743,0,0,1-2,2.593v.036A3.037,3.037,0,0,1,27.344,15.5a3.233,3.233,0,0,1-1.26,2.575c-.882.7-2.359,1.1-4.771,1.1a21.176,21.176,0,0,1-2.971-.18Zm2.719,4.646h.9c1.44,0,2.214-.594,2.214-1.495,0-.918-.7-1.4-1.944-1.4a7.467,7.467,0,0,0-1.17.072Zm0,5.383a8.631,8.631,0,0,0,1.063.036c1.242,0,2.34-.468,2.34-1.747,0-1.224-1.1-1.71-2.467-1.71h-.936Z" transform="translate(0 0)"/>
      <path class="cls-4" d="M31.068,10.244l1.314,4.321c.144.522.324,1.17.432,1.639h.054c.126-.468.27-1.134.4-1.639l1.08-4.321H37.28l-2.053,5.8c-1.26,3.493-2.106,4.9-3.1,5.78a5.046,5.046,0,0,1-2.647,1.206l-.576-2.322a3.456,3.456,0,0,0,1.188-.468,3.147,3.147,0,0,0,1.134-1.1.715.715,0,0,0,.144-.4,1,1,0,0,0-.126-.45l-3.223-8.048Z" transform="translate(0 0)"/>
      <path class="cls-4" d="M38.124,16.654a5.348,5.348,0,0,0,2.358.666c.828,0,1.17-.288,1.17-.738s-.27-.666-1.3-1.008c-1.818-.612-2.521-1.6-2.5-2.646,0-1.639,1.4-2.881,3.583-2.881a5.908,5.908,0,0,1,2.485.5l-.486,1.891a4.32,4.32,0,0,0-1.909-.5c-.667,0-1.044.27-1.044.72,0,.414.342.63,1.422,1.008,1.675.576,2.377,1.422,2.4,2.719,0,1.638-1.3,2.845-3.817,2.845a6.23,6.23,0,0,1-2.845-.612Z" transform="translate(0 0)"/>
      <path class="cls-4" d="M49.014,7.723v2.521h1.962V12.26H49.014v3.187c0,1.063.252,1.548,1.081,1.548a4.464,4.464,0,0,0,.81-.072l.018,2.07a5.369,5.369,0,0,1-1.783.234,2.845,2.845,0,0,1-2.052-.756,3.647,3.647,0,0,1-.756-2.611v-3.6h-1.17V10.244h1.17V8.335Z" transform="translate(0 0)"/>
      <path class="cls-4" d="M57.565,19.048l-.162-.882h-.054a3.172,3.172,0,0,1-2.521,1.081,2.7,2.7,0,0,1-2.845-2.7c0-2.287,2.053-3.385,5.167-3.367v-.126c0-.468-.252-1.135-1.6-1.135a4.951,4.951,0,0,0-2.431.667l-.5-1.765a7.266,7.266,0,0,1,3.421-.774c2.935,0,3.871,1.729,3.871,3.8v3.061a13.666,13.666,0,0,0,.126,2.143Zm-.324-4.159c-1.44-.018-2.557.324-2.557,1.386a.983.983,0,0,0,1.08,1.044,1.5,1.5,0,0,0,1.422-1.008,1.957,1.957,0,0,0,.054-.468Z" transform="translate(0 0)"/>
      <path class="cls-4" d="M62.063,13.053c0-1.1-.036-2.035-.072-2.809h2.376l.126,1.207h.054a3.223,3.223,0,0,1,2.719-1.4c1.8,0,3.151,1.188,3.151,3.781v5.222H67.681V14.169c0-1.134-.4-1.909-1.386-1.909a1.46,1.46,0,0,0-1.386,1.026,1.875,1.875,0,0,0-.108.684v5.078H62.063Z" transform="translate(0 0)"/>
      <path class="cls-4" d="M81.146,6.265V16.42c0,.99.036,2.035.072,2.629H78.787l-.126-1.3h-.036a3.074,3.074,0,0,1-2.755,1.495c-2.089,0-3.763-1.783-3.763-4.52-.018-2.971,1.836-4.681,3.943-4.681a2.681,2.681,0,0,1,2.323.99h.036V6.265Zm-2.737,7.706a4.395,4.395,0,0,0-.036-.486,1.643,1.643,0,0,0-1.6-1.351c-1.243,0-1.891,1.116-1.891,2.5,0,1.494.738,2.431,1.873,2.431a1.6,1.6,0,0,0,1.584-1.314,2.343,2.343,0,0,0,.072-.63Z" transform="translate(0 0)"/>
      <path class="cls-4" d="M85.446,15.52c.09,1.134,1.206,1.674,2.485,1.674a7.746,7.746,0,0,0,2.431-.36l.36,1.855a8.7,8.7,0,0,1-3.187.54c-2.989,0-4.7-1.729-4.7-4.483a4.41,4.41,0,0,1,4.447-4.7c2.845,0,3.925,2.214,3.925,4.393a6.484,6.484,0,0,1-.09,1.081Zm3.223-1.873a1.589,1.589,0,0,0-1.548-1.782,1.8,1.8,0,0,0-1.692,1.782Z" transform="translate(0 0)"/>
      <path class="cls-4" d="M92.843,13.143c0-1.3-.036-2.143-.072-2.9H95.13l.09,1.621h.072a2.587,2.587,0,0,1,2.377-1.818,2.851,2.851,0,0,1,.576.036v2.575a3.959,3.959,0,0,0-.738-.072,1.759,1.759,0,0,0-1.873,1.386,3.221,3.221,0,0,0-.054.612v4.465H92.843Z" transform="translate(0 0)"/>
      <path class="cls-4" d="M106.236,15.934l-.864,3.115h-2.845l3.709-12.136h3.6L113.6,19.048h-2.953l-.937-3.115Zm3.079-2.053-.756-2.575c-.216-.72-.432-1.621-.612-2.341h-.036c-.18.72-.36,1.639-.558,2.341l-.72,2.575Z" transform="translate(0 0)"/>
      <path class="cls-4" d="M115.055,16.654a5.352,5.352,0,0,0,2.359.666c.828,0,1.17-.288,1.17-.738s-.27-.666-1.3-1.008c-1.818-.612-2.521-1.6-2.5-2.646,0-1.639,1.4-2.881,3.583-2.881a5.907,5.907,0,0,1,2.484.5l-.486,1.891a4.32,4.32,0,0,0-1.909-.5c-.666,0-1.044.27-1.044.72,0,.414.342.63,1.422,1.008,1.675.576,2.377,1.422,2.4,2.719,0,1.638-1.3,2.845-3.817,2.845a6.23,6.23,0,0,1-2.845-.612Z" transform="translate(0 0)"/>
      <path class="cls-4" d="M122.866,16.654a5.352,5.352,0,0,0,2.359.666c.828,0,1.17-.288,1.17-.738s-.27-.666-1.3-1.008c-1.818-.612-2.521-1.6-2.5-2.646,0-1.639,1.4-2.881,3.583-2.881a5.907,5.907,0,0,1,2.484.5l-.486,1.891a4.32,4.32,0,0,0-1.909-.5c-.666,0-1.044.27-1.044.72,0,.414.342.63,1.422,1.008,1.675.576,2.377,1.422,2.4,2.719,0,1.638-1.3,2.845-3.817,2.845a6.23,6.23,0,0,1-2.845-.612Z" transform="translate(0 0)"/>
      <path class="cls-4" d="M133.524,7.8a1.374,1.374,0,0,1-1.477,1.369A1.338,1.338,0,0,1,130.625,7.8a1.338,1.338,0,0,1,1.44-1.386A1.373,1.373,0,0,1,133.524,7.8ZM130.7,19.048v-8.8h2.737v8.8Z" transform="translate(0 0)"/>
      <path class="cls-4" d="M135.611,16.654a5.348,5.348,0,0,0,2.358.666c.828,0,1.17-.288,1.17-.738s-.27-.666-1.3-1.008c-1.818-.612-2.521-1.6-2.5-2.646,0-1.639,1.4-2.881,3.583-2.881a5.908,5.908,0,0,1,2.485.5l-.486,1.891a4.32,4.32,0,0,0-1.909-.5c-.667,0-1.044.27-1.044.72,0,.414.342.63,1.422,1.008,1.675.576,2.377,1.422,2.4,2.719,0,1.638-1.3,2.845-3.817,2.845a6.23,6.23,0,0,1-2.845-.612Z" transform="translate(0 0)"/>
      <path class="cls-4" d="M146.5,7.723v2.521h1.963V12.26H146.5v3.187c0,1.063.252,1.548,1.081,1.548a4.464,4.464,0,0,0,.81-.072l.018,2.07a5.369,5.369,0,0,1-1.783.234,2.847,2.847,0,0,1-2.053-.756,3.649,3.649,0,0,1-.756-2.611v-3.6h-1.17V10.244h1.17V8.335Z" transform="translate(0 0)"/>
      <path class="cls-4" d="M152.063,15.52c.09,1.134,1.206,1.674,2.485,1.674a7.746,7.746,0,0,0,2.431-.36l.36,1.855a8.7,8.7,0,0,1-3.187.54c-2.989,0-4.7-1.729-4.7-4.483a4.41,4.41,0,0,1,4.447-4.7c2.845,0,3.925,2.214,3.925,4.393a6.484,6.484,0,0,1-.09,1.081Zm3.223-1.873a1.589,1.589,0,0,0-1.548-1.782,1.8,1.8,0,0,0-1.692,1.782Z" transform="translate(0 0)"/>
      <path class="cls-4" d="M167.995,6.265V16.42c0,.99.036,2.035.072,2.629h-2.431l-.126-1.3h-.036a3.074,3.074,0,0,1-2.755,1.495c-2.089,0-3.763-1.783-3.763-4.52-.018-2.971,1.836-4.681,3.943-4.681a2.681,2.681,0,0,1,2.322.99h.036V6.265Zm-2.737,7.706a4.395,4.395,0,0,0-.036-.486,1.644,1.644,0,0,0-1.6-1.351c-1.242,0-1.89,1.116-1.89,2.5,0,1.494.738,2.431,1.873,2.431a1.6,1.6,0,0,0,1.584-1.314,2.343,2.343,0,0,0,.072-.63Z" transform="translate(0 0)"/>
      <path class="cls-4" d="M176.669,6.913V19.048h-2.755V6.913Z" transform="translate(0 0)"/>
      <path class="cls-4" d="M179.008,13.053c0-1.1-.036-2.035-.072-2.809h2.3l.126,1.188h.054a3.053,3.053,0,0,1,2.665-1.386A2.5,2.5,0,0,1,186.5,11.54h.036a3.948,3.948,0,0,1,1.134-1.062,3.177,3.177,0,0,1,1.675-.432c1.692,0,2.971,1.188,2.971,3.817v5.186h-2.665v-4.79c0-1.278-.414-2.017-1.3-2.017a1.34,1.34,0,0,0-1.261.955,2.294,2.294,0,0,0-.108.7v5.149H184.32V14.115c0-1.116-.4-1.873-1.261-1.873a1.393,1.393,0,0,0-1.278.99,1.82,1.82,0,0,0-.108.685v5.131h-2.665Z" transform="translate(0 0)"/>
      <path class="cls-4" d="M194.487,13.053c0-1.1-.036-2.035-.072-2.809h2.3l.126,1.188h.054a3.053,3.053,0,0,1,2.665-1.386,2.5,2.5,0,0,1,2.413,1.494h.036a3.948,3.948,0,0,1,1.134-1.062,3.177,3.177,0,0,1,1.675-.432c1.692,0,2.971,1.188,2.971,3.817v5.186h-2.665v-4.79c0-1.278-.414-2.017-1.3-2.017a1.34,1.34,0,0,0-1.261.955,2.294,2.294,0,0,0-.108.7v5.149H199.8V14.115c0-1.116-.4-1.873-1.261-1.873a1.393,1.393,0,0,0-1.278.99,1.82,1.82,0,0,0-.108.685v5.131h-2.665Z" transform="translate(0 0)"/>
      <path class="cls-4" d="M218.268,16.222c0,1.152.036,2.088.072,2.827h-2.376l-.126-1.242h-.054a3.141,3.141,0,0,1-2.755,1.44c-1.783,0-3.1-1.117-3.1-3.835V10.244h2.754v4.735c0,1.278.415,2.053,1.369,2.053a1.473,1.473,0,0,0,1.369-.954,1.535,1.535,0,0,0,.09-.594v-5.24h2.755Z" transform="translate(0 0)"/>
      <path class="cls-4" d="M220.461,13.053c0-1.1-.036-2.035-.072-2.809h2.376l.126,1.207h.054a3.223,3.223,0,0,1,2.719-1.4c1.8,0,3.151,1.188,3.151,3.781v5.222h-2.737V14.169c0-1.134-.4-1.909-1.386-1.909a1.46,1.46,0,0,0-1.386,1.026,1.875,1.875,0,0,0-.108.684v5.078h-2.737Z" transform="translate(0 0)"/>
      <path class="cls-4" d="M239.706,14.547a4.418,4.418,0,0,1-4.646,4.7,4.313,4.313,0,0,1-4.555-4.538,4.395,4.395,0,0,1,4.7-4.663A4.281,4.281,0,0,1,239.706,14.547Zm-6.374.09c0,1.512.63,2.646,1.8,2.646,1.062,0,1.747-1.062,1.747-2.646,0-1.314-.5-2.647-1.747-2.647C233.818,11.99,233.332,13.341,233.332,14.637Z" transform="translate(0 0)"/>
      <path class="cls-4" d="M242.944,9.217h-3.259v-2.3h9.327v2.3H245.7v9.831h-2.755Z" transform="translate(0 0)"/>
      <path class="cls-4" d="M250.161,6.265H252.9v5.023h.036a3.294,3.294,0,0,1,1.081-.9,3.075,3.075,0,0,1,1.422-.342c1.747,0,3.079,1.206,3.079,3.853v5.149h-2.737V14.205c0-1.152-.4-1.945-1.422-1.945a1.455,1.455,0,0,0-1.368.955,1.734,1.734,0,0,0-.09.612v5.222h-2.737Z" transform="translate(0 0)"/>
      <path class="cls-4" d="M262.816,15.52c.09,1.134,1.206,1.674,2.484,1.674a7.747,7.747,0,0,0,2.431-.36l.36,1.855a8.7,8.7,0,0,1-3.187.54c-2.989,0-4.7-1.729-4.7-4.483a4.41,4.41,0,0,1,4.447-4.7c2.845,0,3.925,2.214,3.925,4.393a6.484,6.484,0,0,1-.09,1.081Zm3.223-1.873a1.589,1.589,0,0,0-1.548-1.782,1.8,1.8,0,0,0-1.692,1.782Z" transform="translate(0 0)"/>
      <path class="cls-4" d="M270.213,13.143c0-1.3-.036-2.143-.072-2.9H272.5l.09,1.621h.072a2.587,2.587,0,0,1,2.377-1.818,2.851,2.851,0,0,1,.576.036v2.575a3.959,3.959,0,0,0-.738-.072A1.759,1.759,0,0,0,273,13.971a3.221,3.221,0,0,0-.054.612v4.465h-2.737Z" transform="translate(0 0)"/>
      <path class="cls-4" d="M281.861,19.048l-.162-.882h-.054a3.172,3.172,0,0,1-2.521,1.081,2.7,2.7,0,0,1-2.845-2.7c0-2.287,2.053-3.385,5.168-3.367v-.126c0-.468-.252-1.135-1.6-1.135a4.949,4.949,0,0,0-2.431.667l-.5-1.765a7.266,7.266,0,0,1,3.421-.774c2.935,0,3.871,1.729,3.871,3.8v3.061a13.6,13.6,0,0,0,.126,2.143Zm-.324-4.159c-1.44-.018-2.557.324-2.557,1.386a.983.983,0,0,0,1.08,1.044,1.5,1.5,0,0,0,1.422-1.008,1.957,1.957,0,0,0,.054-.468Z" transform="translate(0 0)"/>
      <path class="cls-4" d="M286.359,13.2c0-1.152-.036-2.143-.072-2.953h2.376l.126,1.225h.036a3.379,3.379,0,0,1,2.935-1.422c1.926,0,3.655,1.674,3.655,4.483,0,3.205-2.034,4.718-4,4.718a2.735,2.735,0,0,1-2.287-1.008H289.1v4.375h-2.737Zm2.737,2.07a2.716,2.716,0,0,0,.054.576,1.656,1.656,0,0,0,1.6,1.3c1.188,0,1.891-.99,1.891-2.484,0-1.4-.63-2.467-1.854-2.467a1.719,1.719,0,0,0-1.639,1.386,2.112,2.112,0,0,0-.054.486Z" transform="translate(0 0)"/>
      <path class="cls-4" d="M299.013,10.244l1.314,4.321c.144.522.324,1.17.432,1.639h.054c.126-.468.27-1.134.4-1.639l1.08-4.321h2.935l-2.053,5.8c-1.26,3.493-2.106,4.9-3.1,5.78a5.046,5.046,0,0,1-2.647,1.206l-.576-2.322a3.456,3.456,0,0,0,1.188-.468,3.147,3.147,0,0,0,1.134-1.1.715.715,0,0,0,.144-.4,1,1,0,0,0-.126-.45l-3.223-8.048Z" transform="translate(0 0)"/>
    </g>
  </g>
</svg>
