<svg id="Layer_1" data-name="Layer 1" xmlns="http://www.w3.org/2000/svg" xmlns:xlink="http://www.w3.org/1999/xlink" viewBox="0 0 50.25 50.25">
  <defs>
    <style>
      .cls-1, .cls-3 {
        fill: none;
      }

      .cls-1, .cls-10, .cls-11, .cls-2, .cls-3, .cls-4, .cls-5, .cls-6, .cls-7, .cls-8, .cls-9 {
        stroke: #1a1818;
        stroke-miterlimit: 10;
      }

      .cls-1 {
        stroke-width: 0.25px;
      }

      .cls-10, .cls-11, .cls-2, .cls-3, .cls-4, .cls-5, .cls-6, .cls-7, .cls-8, .cls-9 {
        stroke-width: 0.5px;
      }

      .cls-2 {
        fill: url(#linear-gradient);
      }

      .cls-4 {
        fill: #b98757;
      }

      .cls-5 {
        fill: url(#linear-gradient-2);
      }

      .cls-6 {
        fill: url(#linear-gradient-3);
      }

      .cls-7 {
        fill: #9a673d;
      }

      .cls-8 {
        fill: #4e2a0e;
      }

      .cls-9 {
        fill: url(#linear-gradient-4);
      }

      .cls-10 {
        fill: url(#linear-gradient-5);
      }

      .cls-11 {
        fill: url(#linear-gradient-6);
      }
    </style>
    <linearGradient id="linear-gradient" x1="25.311" y1="33.956" x2="25.311" y2="25.973" gradientUnits="userSpaceOnUse">
      <stop offset="0.133" stop-color="#623a1d" stop-opacity="0.6"/>
      <stop offset="0.2" stop-color="#5b3417" stop-opacity="0.376"/>
      <stop offset="0.299" stop-color="#512d11" stop-opacity="0.102"/>
      <stop offset="0.357" stop-color="#4e2a0e" stop-opacity="0"/>
      <stop offset="0.388" stop-color="#502c10" stop-opacity="0.071"/>
      <stop offset="0.514" stop-color="#583216" stop-opacity="0.304"/>
      <stop offset="0.65" stop-color="#5e371a" stop-opacity="0.47"/>
      <stop offset="0.801" stop-color="#61391c" stop-opacity="0.569"/>
      <stop offset="1" stop-color="#623a1d" stop-opacity="0.6"/>
    </linearGradient>
    <linearGradient id="linear-gradient-2" x1="24.663" y1="21.826" x2="24.082" y2="15.188" gradientUnits="userSpaceOnUse">
      <stop offset="0" stop-color="#4e2a0e" stop-opacity="0.5"/>
      <stop offset="0.158" stop-color="#553318" stop-opacity="0.492"/>
      <stop offset="0.272" stop-color="#6d5039" stop-opacity="0.465"/>
      <stop offset="0.374" stop-color="#968070" stop-opacity="0.419"/>
      <stop offset="0.467" stop-color="#cec5bd" stop-opacity="0.355"/>
      <stop offset="0.528" stop-color="#fff" stop-opacity="0.3"/>
      <stop offset="0.662" stop-color="#c3b7ad" stop-opacity="0.368"/>
      <stop offset="0.88" stop-color="#6e513a" stop-opacity="0.464"/>
      <stop offset="1" stop-color="#4e2a0e" stop-opacity="0.5"/>
    </linearGradient>
    <linearGradient id="linear-gradient-3" x1="38.016" y1="13.84" x2="37.809" y2="11.474" gradientTransform="translate(1.247 -3.256) rotate(5)" gradientUnits="userSpaceOnUse">
      <stop offset="0" stop-color="#4e2a0e" stop-opacity="0.9"/>
      <stop offset="0.183" stop-color="#4e2a0e" stop-opacity="0.862"/>
      <stop offset="0.317" stop-color="#4e2a0e" stop-opacity="0.742"/>
      <stop offset="0.434" stop-color="#4e2a0e" stop-opacity="0.539"/>
      <stop offset="0.528" stop-color="#4e2a0e" stop-opacity="0.3"/>
      <stop offset="0.535" stop-color="#4e2a0e" stop-opacity="0.311"/>
      <stop offset="0.836" stop-color="#4e2a0e" stop-opacity="0.738"/>
      <stop offset="1" stop-color="#4e2a0e" stop-opacity="0.9"/>
    </linearGradient>
    <linearGradient id="linear-gradient-4" x1="35.113" y1="12.902" x2="40.712" y2="12.412" gradientTransform="translate(1.247 -3.256) rotate(5)" gradientUnits="userSpaceOnUse">
      <stop offset="0" stop-color="#4e2a0e" stop-opacity="0.3"/>
      <stop offset="0.286" stop-color="#4e2a0e" stop-opacity="0.261"/>
      <stop offset="0.504" stop-color="#4e2a0e" stop-opacity="0.137"/>
      <stop offset="0.643" stop-color="#4e2a0e" stop-opacity="0"/>
      <stop offset="0.76" stop-color="#4e2a0e" stop-opacity="0.128"/>
      <stop offset="0.867" stop-color="#4e2a0e" stop-opacity="0.3"/>
    </linearGradient>
    <linearGradient id="linear-gradient-5" x1="-10.103" y1="20.09" x2="-10.31" y2="17.725" gradientTransform="translate(18.752 -1.456) rotate(5)" xlink:href="#linear-gradient-3"/>
    <linearGradient id="linear-gradient-6" x1="-13.006" y1="19.152" x2="-7.406" y2="18.663" gradientTransform="translate(18.752 -1.456) rotate(5)" xlink:href="#linear-gradient-4"/>
  </defs>
  <title>eb65fcec-f643-4db4-ac90-1257b577d55d</title>
  <rect class="cls-1" x="0.125" y="0.125" width="50" height="50"/>
  <g>
    <path class="cls-2" d="M44.5,33.956H6.124V27.9l23.6-.022a2.942,2.942,0,0,1,5.563.167L44.5,27.9Z"/>
    <path class="cls-3" d="M15.541,24.005a3.611,3.611,0,0,1-3.51,3.7,3.25,3.25,0,0,1-3.159-3.333,2.925,2.925,0,0,1,2.843-3,2.632,2.632,0,0,1,2.559,2.7,2.369,2.369,0,0,1-2.3,2.43A2.132,2.132,0,0,1,9.9,24.319a1.919,1.919,0,0,1,1.865-1.968,1.727,1.727,0,0,1,1.679,1.771,1.554,1.554,0,0,1-1.511,1.594,1.4,1.4,0,0,1-1.36-1.435A1.259,1.259,0,0,1,11.8,22.99a1.133,1.133,0,0,1,1.1,1.162,1.02,1.02,0,0,1-.991,1.046.918.918,0,0,1-.892-.941.826.826,0,0,1,.8-.847.743.743,0,0,1,.723.763.669.669,0,0,1-.65.686.6.6,0,0,1-.585-.618.542.542,0,0,1,.527-.556.488.488,0,0,1,.474.5.439.439,0,0,1-.427.45"/>
    <rect class="cls-4" x="6.124" y="21.839" width="1.625" height="6.058"/>
    <path class="cls-5" d="M38.943,15.676,38.788,13.9l-1.521.133.155,1.774L18.276,17.484l.133,1.521L7.7,19.943l.133,1.521C25.124,19.938,30.307,19.5,30.307,19.5s.828,1.8,1.4,1.711c.48-.079.874-1.91.874-1.91s2.605-.215,8.594-.752l-.133-1.521L40.908,15.5Z"/>
    <rect class="cls-6" x="35.102" y="11.469" width="5.621" height="2.375" rx="1.187" ry="1.187" transform="translate(-0.959 3.352) rotate(-5)"/>
    <rect class="cls-4" x="6.173" y="17.678" width="1.527" height="2.073"/>
    <rect class="cls-7" x="5.515" y="19.459" width="2.844" height="5.409"/>
    <rect class="cls-8" x="4.441" y="33.956" width="41.683" height="2.375" rx="1.187" ry="1.187"/>
    <rect class="cls-9" x="35.102" y="11.469" width="5.621" height="2.375" rx="1.187" ry="1.187" transform="translate(-0.959 3.352) rotate(-5)"/>
    <rect class="cls-10" x="4.126" y="15.303" width="5.621" height="2.375" rx="1.187" ry="1.187"/>
    <rect class="cls-11" x="4.126" y="15.303" width="5.621" height="2.375" rx="1.187" ry="1.187"/>
  </g>
</svg>
