<svg id="Layer_1" data-name="Layer 1" xmlns="http://www.w3.org/2000/svg" xmlns:xlink="http://www.w3.org/1999/xlink" viewBox="0 0 67.689 83.18">
  <defs>
    <style>
      .cls-1 {
        fill: #c7c9cb;
      }

      .cls-2 {
        fill: url(#radial-gradient);
      }

      .cls-3 {
        fill: url(#radial-gradient-2);
      }

      .cls-4 {
        fill: #1a1818;
      }
    </style>
    <radialGradient id="radial-gradient" cx="34.784" cy="26.365" r="31.264" gradientTransform="matrix(0.237, -0.779, 0.619, 0.146, 12.517, 56.439)" gradientUnits="userSpaceOnUse">
      <stop offset="0.231" stop-color="#fff"/>
      <stop offset="0.314" stop-color="#fff" stop-opacity="0.981"/>
      <stop offset="0.409" stop-color="#fff" stop-opacity="0.927"/>
      <stop offset="0.51" stop-color="#fff" stop-opacity="0.837"/>
      <stop offset="0.616" stop-color="#fff" stop-opacity="0.711"/>
      <stop offset="0.725" stop-color="#fff" stop-opacity="0.548"/>
      <stop offset="0.836" stop-color="#fff" stop-opacity="0.349"/>
      <stop offset="0.947" stop-color="#fff" stop-opacity="0.119"/>
      <stop offset="1" stop-color="#fff" stop-opacity="0"/>
    </radialGradient>
    <radialGradient id="radial-gradient-2" cx="-7.103" cy="41.043" r="17.873" gradientTransform="translate(39.988 9.278) scale(1.035 1.035)" gradientUnits="userSpaceOnUse">
      <stop offset="0" stop-color="#623a1d" stop-opacity="0.1"/>
      <stop offset="0.193" stop-color="#633b1e" stop-opacity="0.132"/>
      <stop offset="0.382" stop-color="#653c1f" stop-opacity="0.227"/>
      <stop offset="0.57" stop-color="#693f22" stop-opacity="0.387"/>
      <stop offset="0.757" stop-color="#6f4326" stop-opacity="0.611"/>
      <stop offset="0.942" stop-color="#76482a" stop-opacity="0.896"/>
      <stop offset="1" stop-color="#794a2c"/>
    </radialGradient>
  </defs>
  <title>da46ca8e-20e6-45f4-bbe0-d4ed78352cfe</title>
  <rect class="cls-1" x="5.077" y="9.117" width="62.528" height="62.528" rx="31.264" ry="31.264"/>
  <rect class="cls-2" x="8.455" y="8.012" width="57.284" height="50.396" rx="25.198" ry="25.198"/>
  <circle class="cls-3" cx="32.636" cy="51.758" r="18.498"/>
  <path class="cls-4" d="M5.057,58.641A60.714,60.714,0,0,1,6.868,52.7q1.161-3.27,2.682-6.82T12.9,38.672q1.827-3.656,3.793-7.119t4.032-6.539a67.458,67.458,0,0,1,4.083-5.5q.58-.667,1.452-1.652t1.948-2.039q1.076-1.055,2.255-2.092a25.866,25.866,0,0,1,2.375-1.863,14.987,14.987,0,0,1,2.323-1.336,5.107,5.107,0,0,1,2.084-.51,6.023,6.023,0,0,1,2.375.457,5.247,5.247,0,0,1,1.846,1.3,6.016,6.016,0,0,1,1.2,2.021,7.523,7.523,0,0,1,.428,2.584,8.479,8.479,0,0,1-.086,1.2q-.085.6-.223,1.23L38.986,38.426q.513-.809,1.436-2.2t2.084-3.094q1.163-1.705,2.426-3.551t2.479-3.568q1.213-1.722,2.238-3.146t1.674-2.3l.615-.809q.615-.809,1.5-1.9T55.4,15.574q1.078-1.195,2.273-2.355A24.348,24.348,0,0,1,60.1,11.145,15.275,15.275,0,0,1,62.529,9.65a5.245,5.245,0,0,1,2.289-.58,2.311,2.311,0,0,1,1.367.387,2.912,2.912,0,0,1,.889,1.037,4.945,4.945,0,0,1,.479,1.529,12.048,12.048,0,0,1,.137,1.828,19.013,19.013,0,0,1-.24,2.988q-.237,1.512-.547,2.742-.17.984-.461,2.813t-.684,4.2q-.393,2.373-.836,5.133t-.906,5.607q-.46,2.848-.922,5.625t-.855,5.186q-.393,2.408-.717,4.307t-.529,2.953c-.068.328-.178.773-.324,1.336a7.764,7.764,0,0,1-.65,1.652A4.756,4.756,0,0,1,58.891,59.8a2.569,2.569,0,0,1-1.727.6,1.717,1.717,0,0,1-1.041-.369,4.015,4.015,0,0,1-.889-.932,4.858,4.858,0,0,1-.615-1.213,4.54,4.54,0,0,1-.256-1.178l7.107-34.734q.1-.492.17-.879a4.309,4.309,0,0,0,.068-.738,2.8,2.8,0,0,0-.084-.7c-.059-.211-.109-.41-.154-.6q-.1-.316-.205-.562a30.468,30.468,0,0,0-3.3,3.041q-1.761,1.846-3.555,4.113t-3.588,4.816q-1.793,2.55-3.4,5.115-1.263,2-2.715,4.219t-2.922,4.447q-1.471,2.232-2.854,4.465T36.425,52.98A19.225,19.225,0,0,0,35.3,55.512q-.582,1.547-1.281,3.023a14.3,14.3,0,0,1-1.5,2.531,2.29,2.29,0,0,1-1.828,1.055,3.115,3.115,0,0,1-1.315-.246,2.179,2.179,0,0,1-.837-.65,2.589,2.589,0,0,1-.444-.949,4.822,4.822,0,0,1-.137-1.178A8.636,8.636,0,0,1,28.1,57.48q.154-.809.324-1.547.718-3.094,1.5-6.152t1.623-6.258q.836-3.2,1.726-6.627T35.092,29.6q.239-1.089.547-2.443t.581-2.742q.273-1.389.444-2.689a18.035,18.035,0,0,0,.171-2.32,6.245,6.245,0,0,0-.137-1.459q-.137-.545-.512-.545a4.74,4.74,0,0,0-2.666.967,16.749,16.749,0,0,0-2.836,2.549,34.285,34.285,0,0,0-2.836,3.621q-1.4,2.039-2.666,4.2t-2.357,4.271q-1.094,2.109-1.879,3.8-.171.352-.5.967T19.6,39.5q-.53,1.107-1.3,2.83t-1.811,4.359q-1.043,2.637-2.409,6.293T11,61.559a2.963,2.963,0,0,1-2.665,1.9,3.246,3.246,0,0,1-2.614-.984,3.615,3.615,0,0,1-.837-2.426A6.549,6.549,0,0,1,5.057,58.641Z"/>
</svg>
