<svg id="Layer_1" data-name="Layer 1" xmlns="http://www.w3.org/2000/svg" xmlns:xlink="http://www.w3.org/1999/xlink" viewBox="0 0 50.25 50.25">
  <defs>
    <style>
      .cls-1, .cls-3 {
        fill: none;
      }

      .cls-1, .cls-2, .cls-3, .cls-4, .cls-5, .cls-6 {
        stroke: #1a1818;
        stroke-miterlimit: 10;
      }

      .cls-1 {
        stroke-width: 0.25px;
      }

      .cls-2, .cls-3 {
        stroke-width: 0.532px;
      }

      .cls-2 {
        fill: url(#linear-gradient);
      }

      .cls-4, .cls-5, .cls-6 {
        stroke-width: 0.5px;
      }

      .cls-4 {
        fill: url(#linear-gradient-2);
      }

      .cls-5 {
        fill: #fff;
      }

      .cls-6 {
        fill: url(#radial-gradient);
      }
    </style>
    <linearGradient id="linear-gradient" x1="124.155" y1="-27.428" x2="148.849" y2="-27.428" gradientTransform="translate(-132.793 57.5) scale(1.16 1.104)" gradientUnits="userSpaceOnUse">
      <stop offset="0" stop-color="#fff"/>
      <stop offset="0.377" stop-color="#fefdfd"/>
      <stop offset="0.513" stop-color="#f9f7f6"/>
      <stop offset="0.609" stop-color="#f0edeb"/>
      <stop offset="0.688" stop-color="#e4deda"/>
      <stop offset="0.755" stop-color="#d3cac4"/>
      <stop offset="0.814" stop-color="#bfb2a8"/>
      <stop offset="0.868" stop-color="#a89688"/>
      <stop offset="0.917" stop-color="#8c7462"/>
      <stop offset="0.961" stop-color="#6e5039"/>
      <stop offset="1" stop-color="#4e2a0e"/>
    </linearGradient>
    <linearGradient id="linear-gradient-2" x1="22.322" y1="15.166" x2="17.095" y2="7.118" gradientTransform="translate(0.499 0.922)" gradientUnits="userSpaceOnUse">
      <stop offset="0" stop-color="#4e2a0e"/>
      <stop offset="0.07" stop-color="#6f513a"/>
      <stop offset="0.154" stop-color="#907a68"/>
      <stop offset="0.243" stop-color="#ae9e91"/>
      <stop offset="0.336" stop-color="#c7bcb3"/>
      <stop offset="0.435" stop-color="#dbd4cf"/>
      <stop offset="0.542" stop-color="#ebe7e4"/>
      <stop offset="0.659" stop-color="#f6f5f3"/>
      <stop offset="0.796" stop-color="#fdfdfc"/>
      <stop offset="1" stop-color="#fff"/>
    </linearGradient>
    <radialGradient id="radial-gradient" cx="8.69" cy="19.856" r="4.806" gradientUnits="userSpaceOnUse">
      <stop offset="0" stop-color="#4e2a0e" stop-opacity="0.1"/>
      <stop offset="0.429" stop-color="#4e2a0e" stop-opacity="0.126"/>
      <stop offset="0.616" stop-color="#4e2a0e" stop-opacity="0.219"/>
      <stop offset="0.756" stop-color="#4e2a0e" stop-opacity="0.38"/>
      <stop offset="0.872" stop-color="#4e2a0e" stop-opacity="0.609"/>
      <stop offset="0.973" stop-color="#4e2a0e" stop-opacity="0.903"/>
      <stop offset="1" stop-color="#4e2a0e"/>
    </radialGradient>
  </defs>
  <title>f8f7a9a9-ca70-4d38-be33-e73fcf99e67c</title>
  <rect class="cls-1" x="0.125" y="0.125" width="50" height="50"/>
  <g>
    <rect class="cls-2" x="11.188" y="10.986" width="28.638" height="32.48" transform="translate(-10.714 18.284) rotate(-33)"/>
    <path class="cls-3" d="M30.218,12.146a1.647,1.647,0,0,1-2.279-.492,1.957,1.957,0,0,0-.911,2.563,1.647,1.647,0,0,1-2.279-.492,1.957,1.957,0,0,0-.911,2.563,1.647,1.647,0,0,1-2.279-.492,1.957,1.957,0,0,0-.911,2.563l-.217.141a1.647,1.647,0,0,1-2.279-.492,1.957,1.957,0,0,0-.911,2.563,1.647,1.647,0,0,1-2.279-.492,1.957,1.957,0,0,0-.911,2.563,1.647,1.647,0,0,1-2.279-.492,1.957,1.957,0,0,0-.911,2.563"/>
    <path class="cls-3" d="M32.523,16.218a1.647,1.647,0,0,1-2.279-.492,1.957,1.957,0,0,0-.911,2.563,1.647,1.647,0,0,1-2.279-.492,1.957,1.957,0,0,0-.911,2.563,1.647,1.647,0,0,1-2.279-.492,1.957,1.957,0,0,0-.911,2.563l-.217.141a1.647,1.647,0,0,1-2.279-.492,1.957,1.957,0,0,0-.911,2.563,1.647,1.647,0,0,1-2.279-.492,1.957,1.957,0,0,0-.911,2.563,1.647,1.647,0,0,1-2.279-.492,1.957,1.957,0,0,0-.911,2.563"/>
    <path class="cls-3" d="M35.067,20.134a1.647,1.647,0,0,1-2.279-.492,1.957,1.957,0,0,0-.911,2.563,1.647,1.647,0,0,1-2.279-.492,1.957,1.957,0,0,0-.911,2.563,1.647,1.647,0,0,1-2.279-.492,1.957,1.957,0,0,0-.911,2.563l-.217.141A1.647,1.647,0,0,1,23,26a1.957,1.957,0,0,0-.911,2.563,1.647,1.647,0,0,1-2.279-.492,1.957,1.957,0,0,0-.911,2.563,1.647,1.647,0,0,1-2.279-.492,1.957,1.957,0,0,0-.911,2.563"/>
    <path class="cls-3" d="M37.372,24.206a1.647,1.647,0,0,1-2.279-.492,1.957,1.957,0,0,0-.911,2.563,1.647,1.647,0,0,1-2.279-.492,1.957,1.957,0,0,0-.911,2.563,1.647,1.647,0,0,1-2.279-.492A1.957,1.957,0,0,0,27.8,30.42l-.217.141a1.647,1.647,0,0,1-2.279-.492,1.957,1.957,0,0,0-.911,2.563,1.647,1.647,0,0,1-2.279-.492A1.957,1.957,0,0,0,21.21,34.7a1.647,1.647,0,0,1-2.279-.492,1.957,1.957,0,0,0-.911,2.563"/>
    <path class="cls-3" d="M40.035,28.046a1.647,1.647,0,0,1-2.279-.492,1.957,1.957,0,0,0-.911,2.563,1.647,1.647,0,0,1-2.279-.492,1.957,1.957,0,0,0-.911,2.563,1.647,1.647,0,0,1-2.279-.492,1.957,1.957,0,0,0-.911,2.563l-.217.141a1.647,1.647,0,0,1-2.279-.492,1.957,1.957,0,0,0-.911,2.563,1.647,1.647,0,0,1-2.279-.492,1.957,1.957,0,0,0-.911,2.563,1.647,1.647,0,0,1-2.279-.492,1.957,1.957,0,0,0-.911,2.563"/>
    <path class="cls-3" d="M42.341,32.117a1.647,1.647,0,0,1-2.279-.492,1.957,1.957,0,0,0-.911,2.563,1.647,1.647,0,0,1-2.279-.492,1.957,1.957,0,0,0-.911,2.563,1.647,1.647,0,0,1-2.279-.492,1.957,1.957,0,0,0-.911,2.563l-.217.141a1.647,1.647,0,0,1-2.279-.492,1.957,1.957,0,0,0-.911,2.563,1.647,1.647,0,0,1-2.279-.492,1.957,1.957,0,0,0-.911,2.563,1.647,1.647,0,0,1-2.279-.492,1.957,1.957,0,0,0-.911,2.563"/>
  </g>
  <path class="cls-4" d="M33.133,6.79a4.8,4.8,0,0,0-7.87-3.69L5.462,15.958l5.192,7.995L30.478,11.079A4.8,4.8,0,0,0,33.133,6.79Z"/>
  <path class="cls-5" d="M6.033,22.821a5.33,5.33,0,0,1-2.012-2.954,3.838,3.838,0,0,1-.062-1.7,4.275,4.275,0,0,1,1.476-2.308,5.4,5.4,0,0,1,7.235,1.449C14.032,19.405,13.7,22.658,11.649,24a4.139,4.139,0,0,1-5.234-.561,2.978,2.978,0,0,1,.448-4.187,2.382,2.382,0,0,1,3.35.359,1.906,1.906,0,0,1-.287,2.68,1.525,1.525,0,0,1-2.144-.23,1.245,1.245,0,0,1,.184-1.715,1.214,1.214,0,0,1,1.372.147"/>
  <path class="cls-6" d="M6.033,22.821a5.33,5.33,0,0,1-2.012-2.954,3.838,3.838,0,0,1-.062-1.7,4.275,4.275,0,0,1,1.476-2.308,5.4,5.4,0,0,1,7.235,1.449C14.032,19.405,13.7,22.658,11.649,24a4.139,4.139,0,0,1-5.234-.561,2.978,2.978,0,0,1,.448-4.187,2.382,2.382,0,0,1,3.35.359,1.906,1.906,0,0,1-.287,2.68,1.525,1.525,0,0,1-2.144-.23,1.245,1.245,0,0,1,.184-1.715,1.214,1.214,0,0,1,1.372.147"/>
</svg>
