<svg id="Layer_1" data-name="Layer 1" xmlns="http://www.w3.org/2000/svg" xmlns:xlink="http://www.w3.org/1999/xlink" viewBox="0 0 50.25 50.25">
  <defs>
    <style>
      .cls-1 {
        fill: none;
        stroke-miterlimit: 10;
        stroke-width: 0.25px;
      }

      .cls-1, .cls-2 {
        stroke: #1a1818;
      }

      .cls-2, .cls-3 {
        stroke-linecap: round;
        stroke-miterlimit: 282;
      }

      .cls-2 {
        stroke-width: 0.304px;
        fill: url(#radial-gradient);
      }

      .cls-3 {
        stroke: #4e2a0e;
        stroke-width: 0.623px;
        fill: url(#radial-gradient-2);
      }
    </style>
    <radialGradient id="radial-gradient" cx="1251.551" cy="-1889.978" r="27.809" gradientTransform="matrix(-0.761, -0.648, 0.386, -0.454, 1707.506, -20.486)" gradientUnits="userSpaceOnUse">
      <stop offset="0" stop-color="#4e2a0e" stop-opacity="0.1"/>
      <stop offset="0.212" stop-color="#4e2a0e" stop-opacity="0.173"/>
      <stop offset="0.487" stop-color="#4e2a0e" stop-opacity="0.38"/>
      <stop offset="0.794" stop-color="#4e2a0e" stop-opacity="0.719"/>
      <stop offset="1" stop-color="#4e2a0e"/>
    </radialGradient>
    <radialGradient id="radial-gradient-2" cx="1251.011" cy="-1361.982" r="6.046" gradientTransform="translate(1860.594 -200.006) rotate(-139.579)" gradientUnits="userSpaceOnUse">
      <stop offset="0" stop-color="#1a1818" stop-opacity="0.2"/>
      <stop offset="0.446" stop-color="#1a1818" stop-opacity="0.41"/>
      <stop offset="1" stop-color="#1a1818"/>
    </radialGradient>
  </defs>
  <title>7955a950-9f79-427a-b281-3cbc71d8a7ba</title>
  <rect class="cls-1" x="0.125" y="0.125" width="50" height="50"/>
  <g>
    <path class="cls-2" d="M10.854,42.386c.918.778,3.584-.89,5.962-3.718a.4.4,0,0,0,.036-.041c.909.548,1.836.633,2.25.149l.015-.014.061.057a.449.449,0,0,0-.076.072c-.491.578-.061,1.755.959,2.656-.916,3.627-.907,6.943.057,7.523,1,.6,2.654-1.989,3.69-5.78A22.8,22.8,0,0,0,24.556,39a41.6,41.6,0,0,1,6.164-9.4,42.683,42.683,0,0,1,7.54-7.048,22.709,22.709,0,0,0,4.16-1.438c3.58-1.622,5.875-3.662,5.119-4.56-.684-.816-3.657-.4-6.885.907a5.535,5.535,0,0,0-.628-.628,5.023,5.023,0,0,0-1.379-.846,4.645,4.645,0,0,0-1.261-1.634c-.033-.026-.061-.047-.092-.074,2.043-2.578,3.014-5.088,2.175-5.806s-3.2.612-5.455,3.016a2.371,2.371,0,0,0-2.226-.2l-.083-.07c.408-.769-.151-2.116-1.344-3.13A4.3,4.3,0,0,0,30,7.805c.466-3.318.213-6.144-.665-6.637-1.014-.569-2.472,2.163-3.258,6.1a23.322,23.322,0,0,0-.484,4.994,44.171,44.171,0,0,1-5.188,7.47,38.98,38.98,0,0,1-9.836,8.519l-.194.227a26.622,26.622,0,0,0-2.833.879c-3.763,1.4-6.228,3.279-5.506,4.19.689.872,4.071.534,7.669-.737.028.026.062.054.094.085,1.067.909,2.333,1.165,2.839.574a.884.884,0,0,0,.1-.144l.024.021c-.345.567.019,1.564.854,2.384a1.392,1.392,0,0,0-.108.128c-2.38,2.829-3.566,5.752-2.652,6.528Z"/>
    <path class="cls-3" d="M20.847,22.1c2.323-2.725,6.1-3.318,8.451-1.32s2.359,5.822.036,8.549-6.1,3.315-8.443,1.322-2.364-5.827-.043-8.551Z"/>
  </g>
</svg>
