<?xml version='1.0' encoding='utf-8'?>
<svg xmlns="http://www.w3.org/2000/svg" id="Layer_1" data-name="Layer 1" viewBox="20.0 20.0 10.25 10.25">
  <defs>
    <style>
      .cls-1, .cls-3 {
        fill: none;
      }

      .cls-1, .cls-2, .cls-3, .cls-4, .cls-5, .cls-6 {
        stroke: #1a1818;
        stroke-miterlimit: 10;
      }

      .cls-1 {
        stroke-width: 0.25px;
      }

      .cls-2, .cls-3, .cls-4, .cls-5, .cls-6 {
        stroke-width: 0.5px;
      }

      .cls-2 {
        fill: url(#linear-gradient);
      }

      .cls-4 {
        fill: #2d1a10;
      }

      .cls-5 {
        fill: url(#linear-gradient-2);
      }

      .cls-6 {
        fill: url(#radial-gradient);
      }
    </style>
    <linearGradient id="linear-gradient" x1="25.125" y1="45.545" x2="25.125" y2="36.765" gradientUnits="userSpaceOnUse">
      <stop offset="0.113" stop-color="#4e2a0e" stop-opacity="0.3" />
      <stop offset="0.324" stop-color="#4e2a0e" />
      <stop offset="0.405" stop-color="#4e2a0e" stop-opacity="0.3" />
      <stop offset="0.49" stop-color="#4e2a0e" />
      <stop offset="0.661" stop-color="#4e2a0e" stop-opacity="0.502" />
    </linearGradient>
    <linearGradient id="linear-gradient-2" x1="18.417" y1="41.155" x2="31.483" y2="41.155" gradientUnits="userSpaceOnUse">
      <stop offset="0.163" stop-color="#4e2a0e" stop-opacity="0.8" />
      <stop offset="0.726" stop-color="#4e2a0e" stop-opacity="0" />
    </linearGradient>
    <radialGradient id="radial-gradient" cx="25.125" cy="22.675" r="15.571" gradientUnits="userSpaceOnUse">
      <stop offset="0" stop-color="#fff" stop-opacity="0.3" />
      <stop offset="0.39" stop-color="#f9f8f7" stop-opacity="0.306" />
      <stop offset="0.586" stop-color="#e6e0dc" stop-opacity="0.329" />
      <stop offset="0.74" stop-color="#c4b8af" stop-opacity="0.367" />
      <stop offset="0.87" stop-color="#947f6e" stop-opacity="0.42" />
      <stop offset="0.986" stop-color="#57351a" stop-opacity="0.49" />
      <stop offset="1" stop-color="#4e2a0e" stop-opacity="0.5" />
    </radialGradient>
  </defs>
  <title>0fe3a8a9-6631-4c5f-96d0-1773c8cb847b</title>
  <rect class="cls-1" x="0.125" y="0.125" width="50" height="50" />
  <g>
    <path class="cls-2" d="M31.658,40.423a1.034,1.034,0,0,0-.38-.732,1.034,1.034,0,0,0,.38-.732c0-1.212-2.925-2.2-6.533-2.2s-6.533.983-6.533,2.2a1.034,1.034,0,0,0,.38.732.895.895,0,0,0,0,1.463.895.895,0,0,0,0,1.463,1.034,1.034,0,0,0-.38.732c0,1.212,2.925,2.2,6.533,2.2s6.533-.983,6.533-2.2a1.034,1.034,0,0,0-.38-.732.895.895,0,0,0,0-1.463A1.034,1.034,0,0,0,31.658,40.423Z" />
    <path class="cls-3" d="M32.069,29.063" />
    <path class="cls-1" d="M18.367,20.708a.414.414,0,0,0,.388.453.552.552,0,0,0,.589-.489.647.647,0,0,0-.607-.707.862.862,0,0,0-.92.765,1.011,1.011,0,0,0,.948,1.105A1.347,1.347,0,0,0,20.2,20.639a1.58,1.58,0,0,0-1.482-1.727,2.1,2.1,0,0,0-2.246,1.867,2.468,2.468,0,0,0,2.315,2.7A3.288,3.288,0,0,0,22.3,20.561l.179.138a.414.414,0,0,0,.388.453.552.552,0,0,0,.589-.489.647.647,0,0,0-.607-.707.862.862,0,0,0-.92.765,1.011,1.011,0,0,0,.948,1.105,1.347,1.347,0,0,0,1.437-1.195A1.58,1.58,0,0,0,22.833,18.9a2.1,2.1,0,0,0-2.246,1.867,2.468,2.468,0,0,0,2.315,2.7,3.288,3.288,0,0,0,3.509-2.917l.21-.063a.414.414,0,0,0,.388.453.552.552,0,0,0,.589-.489.647.647,0,0,0-.607-.707.862.862,0,0,0-.92.765,1.011,1.011,0,0,0,.948,1.105,1.347,1.347,0,0,0,1.437-1.195,1.58,1.58,0,0,0-1.482-1.727,2.1,2.1,0,0,0-2.246,1.867,2.468,2.468,0,0,0,2.315,2.7,3.288,3.288,0,0,0,3.509-2.917l.179.138a.414.414,0,0,0,.388.453.552.552,0,0,0,.589-.489.647.647,0,0,0-.607-.707.862.862,0,0,0-.92.765,1.011,1.011,0,0,0,.948,1.105,1.347,1.347,0,0,0,1.437-1.195,1.58,1.58,0,0,0-1.482-1.727,2.1,2.1,0,0,0-2.246,1.867,2.468,2.468,0,0,0,2.315,2.7,3.288,3.288,0,0,0,3.509-2.917" />
    <ellipse class="cls-4" cx="25.106" cy="38.705" rx="6.377" ry="1.94" />
    <g>
      <line class="cls-3" x1="27.579" y1="38.412" x2="32" y2="20.457" />
      <line class="cls-3" x1="22.671" y1="38.412" x2="18.25" y2="20.457" />
    </g>
    <path class="cls-5" d="M31.483,40.423a1.034,1.034,0,0,0-.38-.732,1.034,1.034,0,0,0,.38-.732c0-1.212-2.925-2.2-6.533-2.2s-6.533.983-6.533,2.2a1.034,1.034,0,0,0,.38.732.895.895,0,0,0,0,1.463.895.895,0,0,0,0,1.463,1.034,1.034,0,0,0-.38.732c0,1.212,2.925,2.2,6.533,2.2s6.533-.983,6.533-2.2a1.034,1.034,0,0,0-.38-.732.895.895,0,0,0,0-1.463A1.034,1.034,0,0,0,31.483,40.423Z" />
    <path class="cls-6" d="M25.125,4.7A12.727,12.727,0,0,0,12.4,17.431a15.516,15.516,0,0,0,.54,3.675,19.6,19.6,0,0,0,4.388,8.152l1.4,9.3a.609.609,0,0,0-.092.257c0,1.01,2.907,1.829,6.494,1.829s6.494-.819,6.494-1.829a.608.608,0,0,0-.089-.25l1.484-9.073a21.054,21.054,0,0,0,4.3-8.384,15.628,15.628,0,0,0,.541-3.677A12.727,12.727,0,0,0,25.125,4.7Z" />
  </g>
</svg>