<svg id="Layer_1" data-name="Layer 1" xmlns="http://www.w3.org/2000/svg" xmlns:xlink="http://www.w3.org/1999/xlink" viewBox="0 0 128.192 55.81">
  <defs>
    <style>
      .cls-1, .cls-2, .cls-4 {
        fill: #1a1818;
      }

      .cls-1, .cls-2, .cls-3, .cls-5 {
        stroke: #1a1818;
        stroke-miterlimit: 10;
      }

      .cls-1 {
        stroke-width: 1.935px;
      }

      .cls-2 {
        stroke-width: 0.161px;
      }

      .cls-3 {
        stroke-width: 0.5px;
        fill: url(#radial-gradient);
      }

      .cls-5 {
        fill: none;
        stroke-width: 1.935px;
      }
    </style>
    <radialGradient id="radial-gradient" cx="51.109" cy="44.077" r="14.292" gradientTransform="translate(3.133 -8.06) scale(1.035 1.035)" gradientUnits="userSpaceOnUse">
      <stop offset="0" stop-color="#623a1d" stop-opacity="0.1"/>
      <stop offset="0.193" stop-color="#633b1e" stop-opacity="0.132"/>
      <stop offset="0.382" stop-color="#653c1f" stop-opacity="0.227"/>
      <stop offset="0.57" stop-color="#693f22" stop-opacity="0.387"/>
      <stop offset="0.757" stop-color="#6f4326" stop-opacity="0.611"/>
      <stop offset="0.942" stop-color="#76482a" stop-opacity="0.896"/>
      <stop offset="1" stop-color="#794a2c"/>
    </radialGradient>
  </defs>
  <title>2fb4f041-b911-4a0b-9bbd-52a8a5703f36</title>
  <line class="cls-1" x1="58.058" y1="37.913" x2="69.667" y2="37.913"/>
  <path class="cls-2" d="M63.558,47.062a19.449,19.449,0,0,1-6.409,1.146,10.728,10.728,0,0,1-7.8-2.755,10.735,10.735,0,0,1-2.91-7.771c.031-6.223,4.3-10.774,11.3-10.774a12.9,12.9,0,0,1,5.2.96l-.65,2.2a10.814,10.814,0,0,0-4.613-.9c-5.078,0-8.39,3.158-8.39,8.39,0,5.294,3.189,8.421,8.05,8.421a8.783,8.783,0,0,0,3.591-.558V39.2H56.685V37.031h6.873Z"/>
  <circle class="cls-3" cx="56.031" cy="37.56" r="14.792"/>
  <g>
    <line class="cls-4" x1="66" y1="37.913" x2="128.192" y2="37.913"/>
    <g>
      <line class="cls-5" x1="66" y1="37.913" x2="123.46" y2="37.913"/>
      <path class="cls-4" d="M122.418,37.913l-1.272-2.091.071-.047,3.41,1.354,3.564.784-3.564.784-3.41,1.354-.071-.036Z"/>
    </g>
  </g>
  <g>
    <path class="cls-4" d="M73.054,47.68q.114-.615.264-1.354t.308-1.494q.158-.756.308-1.485t.255-1.336q-.009-.088-.009-.154v-.145a4.254,4.254,0,0,1,.035-.545,3.8,3.8,0,0,1,.1-.5,1.1,1.1,0,0,1,.215-.453.524.524,0,0,1,.382-.119.734.734,0,0,1,.409.1.711.711,0,0,1,.242.268,1.1,1.1,0,0,1,.114.382,3.65,3.65,0,0,1,.026.444q0,.123-.009.272t-.009.237q.246-.255.523-.523a4.61,4.61,0,0,1,.589-.483,3.414,3.414,0,0,1,.659-.356,1.913,1.913,0,0,1,.725-.141,1.643,1.643,0,0,1,.294.026,2.851,2.851,0,0,1,.294.07,2.923,2.923,0,0,1,.365.119,1.569,1.569,0,0,1,.365.207,1.918,1.918,0,0,1,.488.549,1.293,1.293,0,0,1,.2.672.885.885,0,0,1-.053.286,1.066,1.066,0,0,1-.145.281.865.865,0,0,1-.215.211.475.475,0,0,1-.272.083,1.15,1.15,0,0,1-.365-.075,1.063,1.063,0,0,1-.356-.2.763.763,0,0,1-.127-.149q-.066-.1-.123-.193l-.105-.18a.6.6,0,0,0-.075-.11.858.858,0,0,0-.1-.013q-.053,0-.1,0a1.707,1.707,0,0,0-.853.229,3.933,3.933,0,0,0-.756.558,6.358,6.358,0,0,0-.646.7q-.294.374-.514.672-.176.712-.391,1.516t-.426,1.683v.22q0,.264-.018.536a1.5,1.5,0,0,1-.105.483.77.77,0,0,1-.277.224.9.9,0,0,1-.417.092.653.653,0,0,1-.554-.242.908.908,0,0,1-.185-.567A1.147,1.147,0,0,1,73.054,47.68Z"/>
    <path class="cls-4" d="M80.63,45.219a6.4,6.4,0,0,1,.409-1.138,7.153,7.153,0,0,1,.725-1.217,8.6,8.6,0,0,1,1.077-1.2,9.128,9.128,0,0,1,1.455-1.1,2.208,2.208,0,0,1,.4-.171,2.151,2.151,0,0,1,.563-.11,1.2,1.2,0,0,1,.923-.369,1.892,1.892,0,0,1,1.156.347,2.662,2.662,0,0,1,.778.945q.1.193.18.378a2.682,2.682,0,0,1,.141.391,3.553,3.553,0,0,1,.127.98,4.836,4.836,0,0,1-.22,1.415,6.49,6.49,0,0,1-.624,1.406,7.851,7.851,0,0,1-.98,1.314,8.113,8.113,0,0,1-1.279,1.129,3.812,3.812,0,0,1-1.05.532,4.115,4.115,0,0,1-1.288.189,3.442,3.442,0,0,1-1.173-.18,2.189,2.189,0,0,1-.826-.514,2.113,2.113,0,0,1-.492-.8,3.131,3.131,0,0,1-.163-1.037A4.9,4.9,0,0,1,80.63,45.219Zm1.459.114a2.921,2.921,0,0,0-.075.382,2.869,2.869,0,0,0-.022.347,1.883,1.883,0,0,0,.075.541,1.075,1.075,0,0,0,.242.431,1.142,1.142,0,0,0,.417.281,1.635,1.635,0,0,0,.611.1,2.412,2.412,0,0,0,1.244-.338,4.171,4.171,0,0,0,1.024-.848,5.464,5.464,0,0,0,.751-1.094,5.015,5.015,0,0,0,.426-1.077q.079-.308.136-.58a2.455,2.455,0,0,0,.057-.5,1.085,1.085,0,0,0-.083-.426q-.083-.2-.215-.444-.079-.149-.158-.312t-.141-.321a1.388,1.388,0,0,1-.149.215.7.7,0,0,1-.237.167,2.146,2.146,0,0,1-.431.136,6.113,6.113,0,0,1-.712.105,2.428,2.428,0,0,0-.589.3,4.512,4.512,0,0,0-.584.475,6.547,6.547,0,0,0-.545.589,6.287,6.287,0,0,0-.466.646,6.9,6.9,0,0,0-.36.646A2.8,2.8,0,0,0,82.089,45.333Z"/>
    <path class="cls-4" d="M91.59,40.763a.79.79,0,0,1,.1-.242.712.712,0,0,1,.141-.163.585.585,0,0,1,.136-.088.267.267,0,0,1,.1-.026,1.417,1.417,0,0,1,.229.022q.132.022.255.04l.272.053a.369.369,0,0,1,.33.185.833.833,0,0,1,.1.422,1.191,1.191,0,0,1-.053.36q-.3,1.1-.545,1.912t-.417,1.384q-.171.571-.264.932a2.414,2.414,0,0,0-.092.545,2.014,2.014,0,0,0,.048.413,1.827,1.827,0,0,0,.145.426,1.045,1.045,0,0,0,.246.33.526.526,0,0,0,.36.132,1.437,1.437,0,0,0,.747-.229,4.107,4.107,0,0,0,.721-.558,5.6,5.6,0,0,0,.62-.7q.277-.374.453-.664l.229-.4A5.9,5.9,0,0,0,95.839,44q.18-.479.316-.962t.233-.91q.1-.426.149-.681l.229-1.169a.837.837,0,0,1,.215-.461.738.738,0,0,1,.488-.127,1.492,1.492,0,0,1,.4.048.663.663,0,0,1,.3.171.765.765,0,0,1,.185.33,1.906,1.906,0,0,1,.062.532,4.522,4.522,0,0,1-.119.927q-.119.549-.259,1.1-.079.325-.163.69t-.149.729q-.066.365-.105.694a5.027,5.027,0,0,0-.04.593q0,.448.031.9t.031.949q0,.229-.013.4a1.332,1.332,0,0,1-.04.264,1.252,1.252,0,0,1-.25.51.687.687,0,0,1-.523.167,1.162,1.162,0,0,1-.4-.057.569.569,0,0,1-.233-.154.488.488,0,0,1-.11-.215,1.657,1.657,0,0,1-.035-.242l-.1-1.661-.079.026q-.29.369-.633.826a6.959,6.959,0,0,1-.756.853,4.279,4.279,0,0,1-.9.664,2.163,2.163,0,0,1-1.059.268,1.023,1.023,0,0,1-.294-.057,3.358,3.358,0,0,1-.374-.145,3.172,3.172,0,0,1-.369-.2,1.952,1.952,0,0,1-.281-.207A2.547,2.547,0,0,1,90.5,47.39a3.356,3.356,0,0,1-.2-1.143,4.057,4.057,0,0,1,.053-.65q.053-.325.123-.628t.154-.571q.083-.268.136-.479.167-.659.3-1.16t.233-.879q.1-.378.171-.646Z"/>
    <path class="cls-4" d="M99.271,51.837q.176-.712.312-1.305t.25-1.116q.114-.523.215-1.011t.2-.984q.1-.5.211-1.033t.242-1.169l.422-2.039q.105-.519.145-.892a6.586,6.586,0,0,0,.04-.69q0-.334.018-.593a1.316,1.316,0,0,1,.1-.439.578.578,0,0,1,.233-.272.83.83,0,0,1,.426-.092,1.4,1.4,0,0,1,.615.11.764.764,0,0,1,.325.286.952.952,0,0,1,.127.4q.022.229.022.475a3.642,3.642,0,0,1,.7-.378,6,6,0,0,1,.831-.277,8.011,8.011,0,0,1,.87-.171,5.975,5.975,0,0,1,.826-.062,2.568,2.568,0,0,1,1.107.224,2.316,2.316,0,0,1,.791.6,2.52,2.52,0,0,1,.475.861,3.242,3.242,0,0,1,.158,1.006,3.342,3.342,0,0,1-.193,1.143,4.1,4.1,0,0,1-.527,1,5.4,5.4,0,0,1-.778.866,7.67,7.67,0,0,1-.958.734,11.225,11.225,0,0,1-1.063.611q-.549.277-1.085.5a4.387,4.387,0,0,1-.681.224,2.566,2.566,0,0,1-.576.075,3.06,3.06,0,0,1-.7-.079,2.362,2.362,0,0,1-.655-.264q-.176.6-.294,1.143t-.189.967q-.044.264-.105.554t-.123.567q-.062.277-.119.523t-.092.422a.3.3,0,0,1-.127.176.978.978,0,0,1-.242.119,1.627,1.627,0,0,1-.286.07,1.75,1.75,0,0,1-.259.022q-.65,0-.65-.51A1.118,1.118,0,0,1,99.271,51.837Zm2.725-5.1q.132.018.281.044l.29.053q.141.026.242.048a.8.8,0,0,0,.136.022,1.811,1.811,0,0,0,.374-.044,3.617,3.617,0,0,0,.413-.114q.207-.07.4-.154t.343-.163q.431-.22.918-.532a5.759,5.759,0,0,0,.905-.716,3.746,3.746,0,0,0,.69-.905,2.28,2.28,0,0,0,.272-1.107,1.626,1.626,0,0,0-.062-.457,1.093,1.093,0,0,0-.185-.369.858.858,0,0,0-.321-.25,1.1,1.1,0,0,0-.47-.092,3.8,3.8,0,0,0-.562.04,2.913,2.913,0,0,0-.519.127,3.508,3.508,0,0,0-.51.224,4.94,4.94,0,0,0-.527.33,2.939,2.939,0,0,1-.554.356,2.031,2.031,0,0,1-.668.2Z"/>
  </g>
  <g>
    <path class="cls-4" d="M44.809,25.212a25.625,25.625,0,0,1,.8-2.555q.513-1.406,1.187-2.932t1.481-3.1q.809-1.572,1.678-3.061t1.784-2.811a29.054,29.054,0,0,1,1.806-2.366q.257-.287.643-.71t.861-.876q.476-.454,1-.9A11.329,11.329,0,0,1,57.1,5.1a6.649,6.649,0,0,1,1.028-.574,2.31,2.31,0,0,1,.922-.219,2.73,2.73,0,0,1,1.05.2,2.314,2.314,0,0,1,.816.56,2.562,2.562,0,0,1,.529.869,3.154,3.154,0,0,1,.189,1.111,3.56,3.56,0,0,1-.038.514c-.025.172-.058.348-.1.529l-1.678,8.434q.226-.347.635-.945t.922-1.33q.514-.732,1.073-1.526t1.1-1.534q.537-.74.99-1.353t.741-.99l.272-.348q.272-.348.665-.816t.869-.982q.476-.513,1.005-1.013a10.767,10.767,0,0,1,1.073-.892,6.789,6.789,0,0,1,1.073-.642,2.371,2.371,0,0,1,1.013-.25,1.044,1.044,0,0,1,.6.167,1.25,1.25,0,0,1,.393.446,2.06,2.06,0,0,1,.212.657,5,5,0,0,1,.061.786,8.008,8.008,0,0,1-.106,1.285q-.106.65-.242,1.179-.076.423-.2,1.209t-.3,1.807q-.174,1.02-.371,2.207t-.4,2.411q-.2,1.224-.408,2.418T70.1,20.7q-.174,1.035-.317,1.852t-.234,1.27q-.045.212-.144.574a3.264,3.264,0,0,1-.287.71,2.053,2.053,0,0,1-.5.6,1.155,1.155,0,0,1-.764.257.776.776,0,0,1-.461-.159,1.744,1.744,0,0,1-.393-.4,2.057,2.057,0,0,1-.272-.521,1.92,1.92,0,0,1-.113-.506L69.764,9.447q.045-.212.075-.378a1.745,1.745,0,0,0,.03-.317,1.138,1.138,0,0,0-.038-.3q-.038-.136-.068-.257-.045-.136-.091-.242a13.348,13.348,0,0,0-1.458,1.308q-.779.793-1.572,1.769T65.056,13.1q-.794,1.1-1.5,2.2-.56.861-1.2,1.814l-1.292,1.912q-.65.96-1.262,1.92t-1.111,1.836a8.2,8.2,0,0,0-.5,1.088q-.257.665-.566,1.3a6.153,6.153,0,0,1-.665,1.088,1.021,1.021,0,0,1-.809.454,1.413,1.413,0,0,1-.582-.106.954.954,0,0,1-.371-.28,1.088,1.088,0,0,1-.2-.408,2.008,2.008,0,0,1-.061-.506,3.612,3.612,0,0,1,.068-.7q.068-.347.144-.665.318-1.329.665-2.645t.718-2.69q.37-1.375.763-2.849t.8-3.137q.105-.468.242-1.05t.257-1.179q.121-.6.2-1.156a7.538,7.538,0,0,0,.075-1,2.628,2.628,0,0,0-.06-.627q-.061-.234-.227-.234A2.133,2.133,0,0,0,57.4,7.9a7.323,7.323,0,0,0-1.255,1.1,14.855,14.855,0,0,0-1.254,1.557q-.62.877-1.179,1.806t-1.043,1.836q-.484.907-.832,1.632-.076.152-.219.416t-.378.74q-.234.476-.574,1.217t-.8,1.875Q49.4,21.207,48.8,22.779t-1.36,3.688a1.208,1.208,0,0,1-.476.59,1.254,1.254,0,0,1-.7.227A1.458,1.458,0,0,1,45.1,26.86a1.526,1.526,0,0,1-.37-1.043A2.754,2.754,0,0,1,44.809,25.212Z"/>
    <path class="cls-4" d="M77.224,26.165a3.668,3.668,0,0,1,.062-.611,5.311,5.311,0,0,0,.062-.883q-.29.211-.642.5t-.729.554a5.472,5.472,0,0,1-.751.444,1.617,1.617,0,0,1-.7.18,1.574,1.574,0,0,1-.5-.079,1.319,1.319,0,0,1-.4-.211,2.605,2.605,0,0,1-.672-.738,1.735,1.735,0,0,1-.207-.861,2.78,2.78,0,0,1,.04-.457q.04-.237.119-.545a7.662,7.662,0,0,1,1.147-2.571,7.859,7.859,0,0,1,2.017-2.017A2.473,2.473,0,0,1,77,18.452a4.74,4.74,0,0,1,.923-.092,4.362,4.362,0,0,1,.453.026q.25.026.453.053.2-.044.33-.062a1.962,1.962,0,0,1,.268-.018,1.191,1.191,0,0,1,.439.07.707.707,0,0,1,.435.461,1.064,1.064,0,0,1,.048.321,1.341,1.341,0,0,1-.07.435q-.07.207-.141.417L78.973,24.7q-.035.378-.062.694a3,3,0,0,1-.105.589l-.066.2a.741.741,0,0,1-.127.229.814.814,0,0,1-.22.189.66.66,0,0,1-.343.079,2.144,2.144,0,0,1-.435-.035.646.646,0,0,1-.25-.1.3.3,0,0,1-.114-.158A.787.787,0,0,1,77.224,26.165ZM74.306,23.51a3.59,3.59,0,0,0-.075.352,2.675,2.675,0,0,0-.04.457,1.216,1.216,0,0,0,.07.426.293.293,0,0,0,.308.189,1.5,1.5,0,0,0,.69-.163,3.364,3.364,0,0,0,.6-.391q.378-.308.769-.69a10.087,10.087,0,0,0,.738-.8,7.313,7.313,0,0,0,.615-.866,3.579,3.579,0,0,0,.391-.883,4.841,4.841,0,0,0,.119-.589,4.218,4.218,0,0,0,.048-.6.513.513,0,0,0-.053-.224.2.2,0,0,0-.2-.11,2.4,2.4,0,0,0-.866.167,3.941,3.941,0,0,0-.839.448,5.051,5.051,0,0,0-.769.664,6.576,6.576,0,0,0-.664.817,6.253,6.253,0,0,0-.514.9A5.273,5.273,0,0,0,74.306,23.51Z"/>
    <path class="cls-4" d="M87.92,19.327a1.735,1.735,0,0,0-.659.145,4.472,4.472,0,0,0-.729.391q-.378.246-.769.558t-.769.646q-.193.167-.369.3a1.467,1.467,0,0,1-.352.207,3.941,3.941,0,0,0-.259.532q-.136.33-.268.721t-.25.8q-.119.409-.2.76-.044.185-.07.36t-.062.374q-.035.2-.083.426t-.119.51a.6.6,0,0,1-.141.268.741.741,0,0,1-.2.154.651.651,0,0,1-.2.066,1.187,1.187,0,0,1-.149.013.884.884,0,0,1-.545-.158.733.733,0,0,1-.211-.615q0-.123.009-.259a1.611,1.611,0,0,1,.053-.3q.193-.835.374-1.5t.365-1.239q.185-.571.374-1.077t.387-1.02q.2-.514.413-1.063t.461-1.217a.474.474,0,0,1,.277-.25,1.152,1.152,0,0,1,.479-.1.942.942,0,0,1,.549.149.492.492,0,0,1,.215.431.485.485,0,0,1-.018.1.919.919,0,0,1-.053.149l-.387.914q.369-.29.769-.58a7.915,7.915,0,0,1,.822-.523,5.261,5.261,0,0,1,.848-.378,2.6,2.6,0,0,1,.839-.145,1.833,1.833,0,0,1,1.318.453,1.856,1.856,0,0,1,.475,1.4,4.78,4.78,0,0,1-.189,1.239q-.189.694-.475,1.49t-.615,1.67q-.33.875-.611,1.78a2.965,2.965,0,0,1-.163.413.874.874,0,0,1-.2.268.681.681,0,0,1-.268.145,1.375,1.375,0,0,1-.374.044.682.682,0,0,1-.475-.127.548.548,0,0,1-.132-.409,3.015,3.015,0,0,1,.075-.6,7.97,7.97,0,0,1,.211-.782q.136-.426.316-.91t.391-.984q.167-.4.33-.809t.29-.782q.127-.378.207-.721a2.829,2.829,0,0,0,.079-.633.945.945,0,0,0-.119-.479A.467.467,0,0,0,87.92,19.327Z"/>
    <path class="cls-4" d="M91.647,23.106a8.456,8.456,0,0,1,.5-1.415,9.392,9.392,0,0,1,.8-1.428A8.32,8.32,0,0,1,94,18.988a5.457,5.457,0,0,1,1.3-.954,1.963,1.963,0,0,1,.5-.185,2.506,2.506,0,0,1,.554-.062,2.623,2.623,0,0,1,.541.053,1.19,1.19,0,0,1,.431.176.9.9,0,0,1,.286.316.98.98,0,0,1,.105.475,1.546,1.546,0,0,1-.062.426,1.242,1.242,0,0,1-.185.387.961.961,0,0,1-.308.277.853.853,0,0,1-.431.105.887.887,0,0,1-.356-.07,2.83,2.83,0,0,1-.312-.158q-.079-.053-.149-.092a1.13,1.13,0,0,0-.167-.075,2.9,2.9,0,0,0-.664.417,4.679,4.679,0,0,0-.58.576,5.711,5.711,0,0,0-.492.677q-.224.36-.4.721a6.907,6.907,0,0,0-.308.708q-.127.347-.207.637a4.7,4.7,0,0,0-.11.479,2.944,2.944,0,0,0-.048.523,1.748,1.748,0,0,0,.031.334.8.8,0,0,0,.11.281.559.559,0,0,0,.211.193.684.684,0,0,0,.325.07,2.411,2.411,0,0,0,.611-.079,4.29,4.29,0,0,0,.593-.2,4.889,4.889,0,0,0,.567-.286q.277-.163.541-.33.167-.105.334-.22t.316-.2a2.858,2.858,0,0,1,.277-.145.561.561,0,0,1,.224-.057.484.484,0,0,1,.246.066.237.237,0,0,1,.114.224.734.734,0,0,1-.053.255,2.225,2.225,0,0,1-.334.615,3.092,3.092,0,0,1-.47.488,3.8,3.8,0,0,1-.554.382q-.294.167-.584.308a5.046,5.046,0,0,1-1.1.435,3.848,3.848,0,0,1-.936.145,1.894,1.894,0,0,1-.29-.026,1.222,1.222,0,0,1-.29-.079,2.208,2.208,0,0,1-1.037-.826,2.268,2.268,0,0,1-.325-1.23,4.573,4.573,0,0,1,.048-.646A6.334,6.334,0,0,1,91.647,23.106Z"/>
    <path class="cls-4" d="M99.25,24.934q.132-.51.316-1.187l.391-1.433q.207-.756.417-1.547t.4-1.538a.505.505,0,0,1,.062-.119.767.767,0,0,1,.149-.167.9.9,0,0,1,.246-.145.92.92,0,0,1,.352-.062,1.353,1.353,0,0,1,.29.031.906.906,0,0,1,.25.092.494.494,0,0,1,.176.163.417.417,0,0,1,.066.233v.057a.18.18,0,0,1-.009.057l-.246.932q-.413,1.564-.839,3.138t-.831,3.155q-.018.053-.053.132a.766.766,0,0,1-.1.158.538.538,0,0,1-.149.132.4.4,0,0,1-.211.053.857.857,0,0,1-.4-.092,1.026,1.026,0,0,1-.3-.233.978.978,0,0,1-.185-.308.916.916,0,0,1-.062-.316v-.079a.216.216,0,0,1,.018-.079Zm2.294-9.1a2.8,2.8,0,0,1,.158-.448,1.174,1.174,0,0,1,.4-.475,1.913,1.913,0,0,1,.343-.145,1.09,1.09,0,0,1,.29-.066.325.325,0,0,1,.18.062,1.062,1.062,0,0,1,.163.132,1.8,1.8,0,0,1,.167.193.312.312,0,0,1,.286.158.781.781,0,0,1,.066.334,1.136,1.136,0,0,1-.026.255q-.026.114-.044.185a.8.8,0,0,1-.2.338,1.525,1.525,0,0,1-.343.264,1.883,1.883,0,0,1-.4.171,1.344,1.344,0,0,1-.369.062.579.579,0,0,1-.312-.07,1.228,1.228,0,0,1-.277-.3.569.569,0,0,1-.11-.207.751.751,0,0,1-.013-.127.994.994,0,0,1,.013-.171Q101.526,15.908,101.543,15.837Z"/>
    <path class="cls-4" d="M110.06,19.327a1.735,1.735,0,0,0-.659.145,4.472,4.472,0,0,0-.729.391q-.378.246-.769.558t-.769.646q-.193.167-.369.3a1.467,1.467,0,0,1-.352.207,3.941,3.941,0,0,0-.259.532q-.136.33-.268.721t-.25.8q-.119.409-.2.76-.044.185-.07.36t-.062.374q-.035.2-.083.426t-.119.51a.6.6,0,0,1-.141.268.741.741,0,0,1-.2.154.651.651,0,0,1-.2.066,1.187,1.187,0,0,1-.149.013.884.884,0,0,1-.545-.158.733.733,0,0,1-.211-.615q0-.123.009-.259a1.611,1.611,0,0,1,.053-.3q.193-.835.374-1.5t.365-1.239q.185-.571.374-1.077t.387-1.02q.2-.514.413-1.063t.461-1.217a.474.474,0,0,1,.277-.25,1.152,1.152,0,0,1,.479-.1.942.942,0,0,1,.549.149.492.492,0,0,1,.215.431.485.485,0,0,1-.018.1.919.919,0,0,1-.053.149l-.387.914q.369-.29.769-.58a7.915,7.915,0,0,1,.822-.523,5.261,5.261,0,0,1,.848-.378,2.6,2.6,0,0,1,.839-.145,1.833,1.833,0,0,1,1.318.453,1.856,1.856,0,0,1,.475,1.4,4.78,4.78,0,0,1-.189,1.239q-.189.694-.475,1.49t-.615,1.67q-.33.875-.611,1.78a2.965,2.965,0,0,1-.163.413.874.874,0,0,1-.2.268.681.681,0,0,1-.268.145,1.375,1.375,0,0,1-.374.044.682.682,0,0,1-.475-.127.548.548,0,0,1-.132-.409,3.015,3.015,0,0,1,.075-.6,7.97,7.97,0,0,1,.211-.782q.136-.426.316-.91t.391-.984q.167-.4.33-.809t.29-.782q.127-.378.207-.721a2.829,2.829,0,0,0,.079-.633.945.945,0,0,0-.119-.479A.467.467,0,0,0,110.06,19.327Z"/>
    <path class="cls-4" d="M113.743,24.934q.132-.51.316-1.187l.391-1.433q.207-.756.417-1.547t.4-1.538a.505.505,0,0,1,.062-.119.767.767,0,0,1,.149-.167.9.9,0,0,1,.246-.145.92.92,0,0,1,.352-.062,1.353,1.353,0,0,1,.29.031.906.906,0,0,1,.25.092.494.494,0,0,1,.176.163.417.417,0,0,1,.066.233v.057a.18.18,0,0,1-.009.057l-.246.932q-.413,1.564-.839,3.138t-.831,3.155q-.018.053-.053.132a.766.766,0,0,1-.1.158.538.538,0,0,1-.149.132.4.4,0,0,1-.211.053.857.857,0,0,1-.4-.092,1.026,1.026,0,0,1-.3-.233.978.978,0,0,1-.185-.308.916.916,0,0,1-.062-.316v-.079a.216.216,0,0,1,.018-.079Zm2.294-9.1a2.8,2.8,0,0,1,.158-.448,1.174,1.174,0,0,1,.4-.475,1.913,1.913,0,0,1,.343-.145,1.09,1.09,0,0,1,.29-.066.325.325,0,0,1,.18.062,1.062,1.062,0,0,1,.163.132,1.8,1.8,0,0,1,.167.193.312.312,0,0,1,.286.158.781.781,0,0,1,.066.334,1.136,1.136,0,0,1-.026.255q-.026.114-.044.185a.8.8,0,0,1-.2.338,1.525,1.525,0,0,1-.343.264,1.883,1.883,0,0,1-.4.171,1.344,1.344,0,0,1-.369.062.579.579,0,0,1-.312-.07,1.228,1.228,0,0,1-.277-.3.569.569,0,0,1-.11-.207.751.751,0,0,1-.013-.127.994.994,0,0,1,.013-.171Q116.019,15.908,116.037,15.837Z"/>
  </g>
  <g>
    <path class="cls-4" d="M5.66,36.146q.334-1.459.751-2.944t.813-2.944q.167-.606.294-1.1t.215-.9q.088-.4.132-.734a4.643,4.643,0,0,0,.044-.611V26.79q0-.066-.009-.163a1.77,1.77,0,0,0-.391.1q-.3.1-.712.255t-.861.356q-.453.2-.839.4L4.583,28a3.755,3.755,0,0,1-.356.163,1.521,1.521,0,0,1-.272.079,1.448,1.448,0,0,1-.255.022.623.623,0,0,1-.47-.211.765.765,0,0,1-.2-.545,1.293,1.293,0,0,1,.04-.338.785.785,0,0,1,.123-.259.987.987,0,0,1,.224-.215,2.851,2.851,0,0,1,.343-.207,19.41,19.41,0,0,1,4.5-1.7,19.72,19.72,0,0,1,4.57-.541q.185,0,.439.009t.523.031q.268.022.523.062a4.123,4.123,0,0,1,.448.092.7.7,0,0,1,.352.255.664.664,0,0,1,.149.413,1.888,1.888,0,0,1-.031.343.8.8,0,0,1-.11.29.581.581,0,0,1-.519.272q-.316-.035-.725-.088a6.415,6.415,0,0,0-.822-.053q-.826,0-1.648.04a9.84,9.84,0,0,0-1.683.233.11.11,0,0,0-.057.092q-.013.075-.022.189-.026.475-.079.835a6.974,6.974,0,0,1-.145.721q-.092.36-.224.778t-.308,1q-.176.584-.409,1.4t-.514,1.964L7.55,34.827q-.149.589-.233,1.059t-.145.927a.494.494,0,0,1-.268.281,1.1,1.1,0,0,1-.549.132.583.583,0,0,1-.334-.1.833.833,0,0,1-.246-.259,1.016,1.016,0,0,1-.132-.347A.806.806,0,0,1,5.66,36.146Z"/>
    <path class="cls-4" d="M19.327,38.062a.95.95,0,0,1-.747-.237.971.971,0,0,1-.2-.65,2.8,2.8,0,0,1,.044-.475q.044-.255.114-.527.123-.466.277-.927t.308-.932q.154-.47.3-.94t.259-.945a.6.6,0,0,0,.009-.114.284.284,0,0,0-.062-.193.232.232,0,0,0-.185-.07,1.259,1.259,0,0,0-.417.079,1.782,1.782,0,0,0-.374.176,10.4,10.4,0,0,0-1.033.782,8.479,8.479,0,0,0-.813.809,9.815,9.815,0,0,0-.7.9q-.33.479-.69,1.05a8.13,8.13,0,0,0-.457.971,6.05,6.05,0,0,1-.277.646.959.959,0,0,1-.286.356.835.835,0,0,1-.475.11.57.57,0,0,1-.5-.2.884.884,0,0,1-.145-.527,2.378,2.378,0,0,1,.079-.571l2.9-11.619a1.13,1.13,0,0,1,.088-.229.879.879,0,0,1,.167-.229.915.915,0,0,1,.25-.176.746.746,0,0,1,.33-.07q.141,0,.3.013a1.34,1.34,0,0,1,.286.053.481.481,0,0,1,.211.127.318.318,0,0,1,.083.229,1.176,1.176,0,0,1-.018.145q-.018.11-.053.25-.475,1.907-1.015,3.973t-1.094,4.175a12.678,12.678,0,0,1,1.116-1.208,8.289,8.289,0,0,1,1.191-.945,5.752,5.752,0,0,1,1.266-.62,4.164,4.164,0,0,1,1.358-.224.867.867,0,0,1,.694.286,1.071,1.071,0,0,1,.246.725,1.5,1.5,0,0,1-.053.4q-.105.4-.237.8t-.272.787q-.141.4-.281.8t-.246.839a7.5,7.5,0,0,0-.193,1.05q-.053.5-.07.8a2.7,2.7,0,0,1-.079.492,1.385,1.385,0,0,1-.18.417.941.941,0,0,1-.3.29A.8.8,0,0,1,19.327,38.062Z"/>
    <path class="cls-4" d="M23.036,34.168a1.023,1.023,0,0,1,.2-.642.965.965,0,0,1,.536-.352q.1-.193.3-.523a8.2,8.2,0,0,1,.5-.716,8.921,8.921,0,0,1,.681-.778,5.83,5.83,0,0,1,.844-.712,4.59,4.59,0,0,1,.993-.523,3.151,3.151,0,0,1,1.129-.2,2.875,2.875,0,0,1,.888.123,1.725,1.725,0,0,1,.624.343,1.4,1.4,0,0,1,.369.523,1.725,1.725,0,0,1,.123.655,2.039,2.039,0,0,1-.079.571,1.979,1.979,0,0,1-.457.861,3.551,3.551,0,0,1-.787.646,5.059,5.059,0,0,1-.984.461,10.376,10.376,0,0,1-1.063.308q-.532.123-1.024.189t-.853.1a1.862,1.862,0,0,0-.136.4,2.041,2.041,0,0,0-.057.47.908.908,0,0,0,.4.791,1.93,1.93,0,0,0,1.116.281,3.324,3.324,0,0,0,.791-.092,4.562,4.562,0,0,0,.716-.237,6.145,6.145,0,0,0,.637-.316q.3-.171.545-.338a5.947,5.947,0,0,1,.6-.356,1.145,1.145,0,0,1,.505-.145q.22,0,.281.11a.47.47,0,0,1,.062.233q0,.07,0,.136a.87.87,0,0,1-.013.11,1.47,1.47,0,0,1-.176.457,1.446,1.446,0,0,1-.334.4,5.979,5.979,0,0,1-1.876,1.028,6.7,6.7,0,0,1-2.052.308q-.211,0-.5-.026A3.78,3.78,0,0,1,24.9,37.6a3.056,3.056,0,0,1-.606-.229,1.852,1.852,0,0,1-.91-1,2.331,2.331,0,0,1-.145-.87,4.257,4.257,0,0,1,.114-.923.389.389,0,0,1-.215-.119A.4.4,0,0,1,23.036,34.168Zm5.5-2.435a.216.216,0,0,0,.018-.079v-.079a.4.4,0,0,0-.176-.356.736.736,0,0,0-.422-.119,1.581,1.581,0,0,0-.76.2,3.493,3.493,0,0,0-.7.505,4.511,4.511,0,0,0-.584.65,4.456,4.456,0,0,0-.4.628,8.526,8.526,0,0,0,1.16-.171,4.632,4.632,0,0,0,.918-.3,2.4,2.4,0,0,0,.633-.4A1.035,1.035,0,0,0,28.538,31.733Z"/>
  </g>
</svg>
